<svg width="400" height="400" viewBox="0 0 400 400" fill="none" xmlns="http://www.w3.org/2000/svg">
<g clip-path="url(#clip0_301_15)">
<rect width="400" height="400" fill="url(#paint0_linear_301_15)"/>
<path d="M52.5239 154.316V168.483C51.9674 169.154 51.1081 169.882 49.946 170.668C48.7839 171.437 47.2862 172.1 45.4531 172.656C43.6199 173.213 41.4021 173.491 38.7997 173.491C36.4919 173.491 34.3886 173.115 32.49 172.362C30.5914 171.592 28.9546 170.471 27.5797 168.998C26.2212 167.525 25.1737 165.725 24.4372 163.597C23.7006 161.453 23.3324 159.006 23.3324 156.256V154.022C23.3324 151.272 23.6843 148.825 24.3881 146.681C25.1082 144.537 26.1312 142.728 27.457 141.255C28.7828 139.782 30.3622 138.661 32.1954 137.892C34.0286 137.122 36.0663 136.738 38.3087 136.738C41.4185 136.738 43.9718 137.245 45.9687 138.26C47.9655 139.258 49.4877 140.65 50.5352 142.434C51.5991 144.201 52.2538 146.231 52.4993 148.522H45.3549C45.1748 147.311 44.8311 146.255 44.3237 145.355C43.8163 144.455 43.088 143.751 42.1387 143.244C41.2057 142.736 39.9945 142.483 38.5051 142.483C37.2775 142.483 36.1809 142.736 35.2152 143.244C34.2659 143.735 33.4639 144.463 32.8092 145.429C32.1545 146.395 31.6553 147.589 31.3115 149.013C30.9678 150.437 30.796 152.09 30.796 153.973V156.256C30.796 158.122 30.976 159.775 31.3361 161.215C31.6962 162.639 32.2281 163.842 32.9319 164.824C33.6521 165.79 34.5359 166.518 35.5835 167.009C36.631 167.501 37.8504 167.746 39.2416 167.746C40.4037 167.746 41.3694 167.648 42.1387 167.451C42.9243 167.255 43.5545 167.018 44.0291 166.739C44.5201 166.445 44.8966 166.167 45.1585 165.905V159.57H38.4314V154.316H52.5239ZM65.4869 135.289V173H58.3916V135.289H65.4869ZM85.6681 167.009V155.176C85.6681 154.325 85.529 153.596 85.2507 152.991C84.9725 152.369 84.5387 151.886 83.9495 151.542C83.3766 151.198 82.6319 151.027 81.7153 151.027C80.9297 151.027 80.2504 151.166 79.6776 151.444C79.1047 151.706 78.6628 152.09 78.3518 152.598C78.0408 153.089 77.8853 153.67 77.8853 154.341H70.8146C70.8146 153.212 71.0764 152.14 71.6002 151.125C72.124 150.11 72.8851 149.218 73.8835 148.449C74.8819 147.663 76.0685 147.049 77.4434 146.607C78.8347 146.165 80.3896 145.944 82.1082 145.944C84.1705 145.944 86.0036 146.288 87.6076 146.976C89.2117 147.663 90.472 148.694 91.3885 150.069C92.3215 151.444 92.788 153.163 92.788 155.225V166.592C92.788 168.049 92.878 169.244 93.058 170.177C93.2381 171.093 93.5 171.895 93.8437 172.583V173H86.6992C86.3555 172.28 86.0937 171.38 85.9136 170.299C85.7499 169.203 85.6681 168.106 85.6681 167.009ZM86.601 156.821L86.6501 160.823H82.6974C81.7644 160.823 80.9542 160.929 80.2668 161.142C79.5794 161.355 79.0147 161.657 78.5728 162.05C78.1309 162.427 77.8035 162.869 77.5907 163.376C77.3943 163.883 77.2961 164.44 77.2961 165.045C77.2961 165.651 77.4352 166.199 77.7135 166.69C77.9917 167.165 78.3927 167.541 78.9165 167.82C79.4403 168.082 80.054 168.212 80.7578 168.212C81.8217 168.212 82.7465 168 83.5321 167.574C84.3178 167.149 84.9234 166.625 85.3489 166.003C85.7909 165.381 86.02 164.792 86.0364 164.235L87.9023 167.23C87.6404 167.902 87.2803 168.597 86.822 169.317C86.3801 170.037 85.8154 170.717 85.128 171.355C84.4405 171.977 83.614 172.493 82.6483 172.902C81.6826 173.295 80.5369 173.491 79.2111 173.491C77.5253 173.491 75.9949 173.155 74.62 172.484C73.2615 171.797 72.1813 170.856 71.3792 169.661C70.5936 168.45 70.2008 167.075 70.2008 165.536C70.2008 164.145 70.4627 162.909 70.9864 161.829C71.5102 160.749 72.2795 159.841 73.2942 159.104C74.3254 158.351 75.6103 157.786 77.1488 157.41C78.6873 157.017 80.4714 156.821 82.501 156.821H86.601ZM112.601 165.659C112.601 165.152 112.454 164.693 112.159 164.284C111.864 163.875 111.316 163.499 110.514 163.155C109.728 162.795 108.591 162.467 107.101 162.173C105.759 161.878 104.507 161.51 103.345 161.068C102.199 160.61 101.201 160.061 100.35 159.423C99.515 158.785 98.8603 158.032 98.3857 157.164C97.911 156.281 97.6737 155.274 97.6737 154.145C97.6737 153.032 97.911 151.984 98.3857 151.002C98.8767 150.02 99.5723 149.153 100.473 148.4C101.389 147.63 102.502 147.033 103.812 146.607C105.137 146.165 106.627 145.944 108.28 145.944C110.588 145.944 112.568 146.313 114.221 147.049C115.891 147.786 117.167 148.801 118.051 150.094C118.951 151.37 119.402 152.827 119.402 154.464H112.331C112.331 153.776 112.183 153.163 111.889 152.622C111.611 152.066 111.169 151.632 110.563 151.321C109.974 150.994 109.205 150.83 108.255 150.83C107.47 150.83 106.79 150.969 106.218 151.248C105.645 151.509 105.203 151.87 104.892 152.328C104.597 152.77 104.45 153.261 104.45 153.801C104.45 154.21 104.532 154.578 104.695 154.906C104.875 155.217 105.162 155.503 105.555 155.765C105.947 156.027 106.455 156.272 107.077 156.502C107.715 156.714 108.501 156.911 109.434 157.091C111.349 157.484 113.059 157.999 114.565 158.637C116.071 159.259 117.266 160.111 118.149 161.191C119.033 162.255 119.475 163.654 119.475 165.389C119.475 166.568 119.213 167.648 118.69 168.63C118.166 169.612 117.413 170.471 116.431 171.208C115.449 171.928 114.27 172.493 112.895 172.902C111.537 173.295 110.007 173.491 108.304 173.491C105.833 173.491 103.738 173.049 102.019 172.165C100.317 171.281 99.024 170.16 98.1402 168.802C97.2727 167.427 96.8389 166.019 96.8389 164.579H103.541C103.574 165.545 103.82 166.322 104.278 166.911C104.753 167.501 105.35 167.926 106.07 168.188C106.807 168.45 107.601 168.581 108.452 168.581C109.368 168.581 110.129 168.458 110.735 168.212C111.341 167.951 111.799 167.607 112.11 167.181C112.437 166.739 112.601 166.232 112.601 165.659ZM138.429 165.659C138.429 165.152 138.282 164.693 137.987 164.284C137.692 163.875 137.144 163.499 136.342 163.155C135.556 162.795 134.419 162.467 132.929 162.173C131.587 161.878 130.335 161.51 129.173 161.068C128.027 160.61 127.029 160.061 126.178 159.423C125.343 158.785 124.688 158.032 124.214 157.164C123.739 156.281 123.502 155.274 123.502 154.145C123.502 153.032 123.739 151.984 124.214 151.002C124.705 150.02 125.4 149.153 126.3 148.4C127.217 147.63 128.33 147.033 129.639 146.607C130.965 146.165 132.455 145.944 134.108 145.944C136.416 145.944 138.396 146.313 140.049 147.049C141.719 147.786 142.995 148.801 143.879 150.094C144.779 151.37 145.23 152.827 145.23 154.464H138.159C138.159 153.776 138.011 153.163 137.717 152.622C137.439 152.066 136.997 151.632 136.391 151.321C135.802 150.994 135.033 150.83 134.083 150.83C133.298 150.83 132.618 150.969 132.045 151.248C131.473 151.509 131.031 151.87 130.72 152.328C130.425 152.77 130.278 153.261 130.278 153.801C130.278 154.21 130.36 154.578 130.523 154.906C130.703 155.217 130.99 155.503 131.383 155.765C131.775 156.027 132.283 156.272 132.905 156.502C133.543 156.714 134.329 156.911 135.262 157.091C137.177 157.484 138.887 157.999 140.393 158.637C141.899 159.259 143.094 160.111 143.977 161.191C144.861 162.255 145.303 163.654 145.303 165.389C145.303 166.568 145.041 167.648 144.518 168.63C143.994 169.612 143.241 170.471 142.259 171.208C141.277 171.928 140.098 172.493 138.723 172.902C137.365 173.295 135.835 173.491 134.132 173.491C131.661 173.491 129.566 173.049 127.847 172.165C126.145 171.281 124.852 170.16 123.968 168.802C123.101 167.427 122.667 166.019 122.667 164.579H129.369C129.402 165.545 129.648 166.322 130.106 166.911C130.581 167.501 131.178 167.926 131.898 168.188C132.635 168.45 133.429 168.581 134.28 168.581C135.196 168.581 135.957 168.458 136.563 168.212C137.169 167.951 137.627 167.607 137.938 167.181C138.265 166.739 138.429 166.232 138.429 165.659ZM156.965 151.935V173H149.87V146.436H156.523L156.965 151.935ZM155.983 158.785H154.019C154.019 156.935 154.24 155.233 154.682 153.678C155.14 152.107 155.803 150.748 156.67 149.603C157.554 148.441 158.643 147.54 159.936 146.902C161.229 146.264 162.726 145.944 164.429 145.944C165.607 145.944 166.687 146.125 167.669 146.485C168.651 146.828 169.494 147.377 170.198 148.13C170.918 148.866 171.475 149.832 171.868 151.027C172.26 152.205 172.457 153.621 172.457 155.274V173H165.386V156.06C165.386 154.848 165.222 153.915 164.895 153.261C164.568 152.606 164.101 152.148 163.496 151.886C162.906 151.624 162.194 151.493 161.36 151.493C160.443 151.493 159.641 151.681 158.954 152.058C158.283 152.434 157.726 152.958 157.284 153.629C156.842 154.284 156.515 155.053 156.302 155.937C156.089 156.821 155.983 157.77 155.983 158.785ZM171.794 157.975L169.265 158.294C169.265 156.559 169.478 154.947 169.904 153.457C170.345 151.968 170.992 150.658 171.843 149.529C172.711 148.4 173.783 147.524 175.059 146.902C176.336 146.264 177.809 145.944 179.479 145.944C180.755 145.944 181.917 146.133 182.965 146.509C184.012 146.869 184.904 147.45 185.641 148.252C186.394 149.038 186.967 150.069 187.36 151.346C187.769 152.622 187.973 154.186 187.973 156.035V173H180.878V156.035C180.878 154.807 180.714 153.875 180.387 153.236C180.076 152.582 179.618 152.131 179.012 151.886C178.423 151.624 177.719 151.493 176.901 151.493C176.05 151.493 175.305 151.665 174.667 152.009C174.028 152.336 173.496 152.794 173.071 153.384C172.645 153.973 172.326 154.66 172.113 155.446C171.9 156.215 171.794 157.058 171.794 157.975ZM192.319 159.988V159.472C192.319 157.525 192.597 155.732 193.154 154.096C193.71 152.442 194.52 151.01 195.584 149.799C196.648 148.588 197.958 147.647 199.512 146.976C201.067 146.288 202.851 145.944 204.865 145.944C206.878 145.944 208.67 146.288 210.241 146.976C211.813 147.647 213.13 148.588 214.194 149.799C215.274 151.01 216.093 152.442 216.649 154.096C217.206 155.732 217.484 157.525 217.484 159.472V159.988C217.484 161.919 217.206 163.711 216.649 165.365C216.093 167.001 215.274 168.433 214.194 169.661C213.13 170.872 211.821 171.813 210.266 172.484C208.711 173.155 206.927 173.491 204.914 173.491C202.901 173.491 201.108 173.155 199.537 172.484C197.982 171.813 196.664 170.872 195.584 169.661C194.52 168.433 193.71 167.001 193.154 165.365C192.597 163.711 192.319 161.919 192.319 159.988ZM199.39 159.472V159.988C199.39 161.101 199.488 162.14 199.684 163.106C199.881 164.072 200.192 164.923 200.617 165.659C201.059 166.379 201.632 166.944 202.336 167.353C203.04 167.762 203.899 167.967 204.914 167.967C205.896 167.967 206.739 167.762 207.442 167.353C208.146 166.944 208.711 166.379 209.137 165.659C209.562 164.923 209.873 164.072 210.069 163.106C210.282 162.14 210.389 161.101 210.389 159.988V159.472C210.389 158.392 210.282 157.377 210.069 156.428C209.873 155.462 209.554 154.611 209.112 153.875C208.686 153.122 208.122 152.532 207.418 152.107C206.714 151.681 205.863 151.469 204.865 151.469C203.866 151.469 203.015 151.681 202.311 152.107C201.624 152.532 201.059 153.122 200.617 153.875C200.192 154.611 199.881 155.462 199.684 156.428C199.488 157.377 199.39 158.392 199.39 159.472ZM228.9 152.23V173H221.83V146.436H228.483L228.9 152.23ZM236.904 146.264L236.781 152.819C236.438 152.77 236.02 152.729 235.529 152.696C235.055 152.647 234.621 152.622 234.228 152.622C233.23 152.622 232.362 152.753 231.626 153.015C230.905 153.261 230.3 153.629 229.809 154.12C229.334 154.611 228.974 155.208 228.728 155.912C228.499 156.616 228.368 157.418 228.336 158.318L226.912 157.876C226.912 156.158 227.084 154.578 227.427 153.138C227.771 151.681 228.27 150.413 228.925 149.333C229.596 148.252 230.414 147.418 231.38 146.828C232.346 146.239 233.45 145.944 234.694 145.944C235.087 145.944 235.488 145.977 235.897 146.043C236.307 146.092 236.642 146.165 236.904 146.264ZM247.314 151.542V183.213H240.243V146.436H246.798L247.314 151.542ZM264.131 159.423V159.939C264.131 161.87 263.902 163.662 263.444 165.315C263.002 166.969 262.347 168.409 261.48 169.636C260.612 170.848 259.532 171.797 258.239 172.484C256.962 173.155 255.489 173.491 253.82 173.491C252.199 173.491 250.792 173.164 249.597 172.509C248.402 171.854 247.396 170.938 246.577 169.759C245.775 168.564 245.129 167.181 244.638 165.61C244.147 164.039 243.77 162.353 243.508 160.552V159.202C243.77 157.271 244.147 155.503 244.638 153.899C245.129 152.279 245.775 150.879 246.577 149.701C247.396 148.506 248.394 147.581 249.573 146.927C250.767 146.272 252.167 145.944 253.771 145.944C255.457 145.944 256.938 146.264 258.215 146.902C259.508 147.54 260.588 148.457 261.455 149.652C262.339 150.847 263.002 152.271 263.444 153.924C263.902 155.577 264.131 157.41 264.131 159.423ZM257.036 159.939V159.423C257.036 158.294 256.938 157.254 256.741 156.305C256.561 155.339 256.267 154.497 255.858 153.776C255.465 153.056 254.941 152.5 254.286 152.107C253.648 151.698 252.871 151.493 251.954 151.493C250.988 151.493 250.162 151.649 249.474 151.96C248.803 152.271 248.255 152.721 247.829 153.31C247.404 153.899 247.085 154.603 246.872 155.421C246.659 156.24 246.528 157.164 246.479 158.196V161.608C246.561 162.819 246.79 163.908 247.166 164.874C247.543 165.823 248.124 166.576 248.91 167.132C249.695 167.689 250.726 167.967 252.003 167.967C252.936 167.967 253.722 167.762 254.36 167.353C254.998 166.928 255.514 166.347 255.907 165.61C256.316 164.874 256.602 164.022 256.766 163.057C256.946 162.091 257.036 161.052 257.036 159.939ZM275.425 135.289V173H268.354V135.289H275.425ZM274.418 158.785H272.479C272.495 156.935 272.741 155.233 273.215 153.678C273.69 152.107 274.369 150.748 275.253 149.603C276.137 148.441 277.193 147.54 278.42 146.902C279.664 146.264 281.039 145.944 282.545 145.944C283.854 145.944 285.041 146.133 286.105 146.509C287.185 146.869 288.11 147.458 288.879 148.277C289.665 149.079 290.27 150.135 290.696 151.444C291.121 152.753 291.334 154.341 291.334 156.207V173H284.214V156.158C284.214 154.979 284.043 154.055 283.699 153.384C283.371 152.696 282.889 152.213 282.25 151.935C281.628 151.64 280.859 151.493 279.942 151.493C278.928 151.493 278.06 151.681 277.34 152.058C276.636 152.434 276.072 152.958 275.646 153.629C275.22 154.284 274.909 155.053 274.713 155.937C274.517 156.821 274.418 157.77 274.418 158.785ZM304.175 146.436V173H297.079V146.436H304.175ZM296.637 139.512C296.637 138.481 296.997 137.63 297.718 136.959C298.438 136.288 299.403 135.952 300.615 135.952C301.809 135.952 302.767 136.288 303.487 136.959C304.224 137.63 304.592 138.481 304.592 139.512C304.592 140.543 304.224 141.394 303.487 142.065C302.767 142.736 301.809 143.072 300.615 143.072C299.403 143.072 298.438 142.736 297.718 142.065C296.997 141.394 296.637 140.543 296.637 139.512ZM324.38 165.659C324.38 165.152 324.233 164.693 323.938 164.284C323.644 163.875 323.095 163.499 322.293 163.155C321.508 162.795 320.37 162.467 318.881 162.173C317.539 161.878 316.287 161.51 315.124 161.068C313.979 160.61 312.98 160.061 312.129 159.423C311.294 158.785 310.64 158.032 310.165 157.164C309.69 156.281 309.453 155.274 309.453 154.145C309.453 153.032 309.69 151.984 310.165 151.002C310.656 150.02 311.352 149.153 312.252 148.4C313.169 147.63 314.282 147.033 315.591 146.607C316.917 146.165 318.406 145.944 320.059 145.944C322.367 145.944 324.348 146.313 326.001 147.049C327.67 147.786 328.947 148.801 329.831 150.094C330.731 151.37 331.181 152.827 331.181 154.464H324.11C324.11 153.776 323.963 153.163 323.668 152.622C323.39 152.066 322.948 151.632 322.343 151.321C321.753 150.994 320.984 150.83 320.035 150.83C319.249 150.83 318.57 150.969 317.997 151.248C317.424 151.509 316.982 151.87 316.671 152.328C316.377 152.77 316.229 153.261 316.229 153.801C316.229 154.21 316.311 154.578 316.475 154.906C316.655 155.217 316.941 155.503 317.334 155.765C317.727 156.027 318.234 156.272 318.856 156.502C319.495 156.714 320.28 156.911 321.213 157.091C323.128 157.484 324.839 157.999 326.344 158.637C327.85 159.259 329.045 160.111 329.929 161.191C330.813 162.255 331.255 163.654 331.255 165.389C331.255 166.568 330.993 167.648 330.469 168.63C329.945 169.612 329.192 170.471 328.21 171.208C327.228 171.928 326.05 172.493 324.675 172.902C323.316 173.295 321.786 173.491 320.084 173.491C317.612 173.491 315.517 173.049 313.799 172.165C312.096 171.281 310.803 170.16 309.92 168.802C309.052 167.427 308.618 166.019 308.618 164.579H315.321C315.354 165.545 315.599 166.322 316.057 166.911C316.532 167.501 317.129 167.926 317.85 168.188C318.586 168.45 319.38 168.581 320.231 168.581C321.148 168.581 321.909 168.458 322.514 168.212C323.12 167.951 323.578 167.607 323.889 167.181C324.217 166.739 324.38 166.232 324.38 165.659ZM342.916 151.935V173H335.821V146.436H342.475L342.916 151.935ZM341.934 158.785H339.97C339.97 156.935 340.191 155.233 340.633 153.678C341.092 152.107 341.754 150.748 342.622 149.603C343.506 148.441 344.594 147.54 345.887 146.902C347.18 146.264 348.678 145.944 350.38 145.944C351.559 145.944 352.639 146.125 353.621 146.485C354.603 146.828 355.446 147.377 356.15 148.13C356.87 148.866 357.426 149.832 357.819 151.027C358.212 152.205 358.408 153.621 358.408 155.274V173H351.338V156.06C351.338 154.848 351.174 153.915 350.847 153.261C350.519 152.606 350.053 152.148 349.447 151.886C348.858 151.624 348.146 151.493 347.311 151.493C346.395 151.493 345.593 151.681 344.905 152.058C344.234 152.434 343.678 152.958 343.236 153.629C342.794 154.284 342.466 155.053 342.254 155.937C342.041 156.821 341.934 157.77 341.934 158.785ZM357.745 157.975L355.217 158.294C355.217 156.559 355.429 154.947 355.855 153.457C356.297 151.968 356.943 150.658 357.795 149.529C358.662 148.4 359.734 147.524 361.011 146.902C362.287 146.264 363.761 145.944 365.43 145.944C366.707 145.944 367.869 146.133 368.916 146.509C369.964 146.869 370.856 147.45 371.592 148.252C372.345 149.038 372.918 150.069 373.311 151.346C373.72 152.622 373.925 154.186 373.925 156.035V173H366.829V156.035C366.829 154.807 366.666 153.875 366.338 153.236C366.027 152.582 365.569 152.131 364.964 151.886C364.374 151.624 363.671 151.493 362.852 151.493C362.001 151.493 361.256 151.665 360.618 152.009C359.98 152.336 359.448 152.794 359.022 153.384C358.597 153.973 358.277 154.66 358.065 155.446C357.852 156.215 357.745 157.058 357.745 157.975ZM47.1717 226.255V232H29.1756V226.255H47.1717ZM31.5571 196.253V232H24.1917V196.253H31.5571ZM49.8232 218.988V218.472C49.8232 216.525 50.1015 214.732 50.658 213.096C51.2145 211.442 52.0246 210.01 53.0885 208.799C54.1524 207.588 55.4618 206.647 57.0167 205.976C58.5717 205.288 60.3557 204.944 62.3689 204.944C64.3821 204.944 66.1744 205.288 67.7457 205.976C69.3169 206.647 70.6345 207.588 71.6984 208.799C72.7787 210.01 73.597 211.442 74.1535 213.096C74.71 214.732 74.9883 216.525 74.9883 218.472V218.988C74.9883 220.919 74.71 222.711 74.1535 224.365C73.597 226.001 72.7787 227.433 71.6984 228.661C70.6345 229.872 69.3251 230.813 67.7702 231.484C66.2153 232.155 64.4312 232.491 62.418 232.491C60.4048 232.491 58.6126 232.155 57.0413 231.484C55.4864 230.813 54.1688 229.872 53.0885 228.661C52.0246 227.433 51.2145 226.001 50.658 224.365C50.1015 222.711 49.8232 220.919 49.8232 218.988ZM56.894 218.472V218.988C56.894 220.101 56.9922 221.14 57.1886 222.106C57.385 223.072 57.696 223.923 58.1215 224.659C58.5635 225.379 59.1363 225.944 59.8401 226.353C60.5439 226.762 61.4032 226.967 62.418 226.967C63.4001 226.967 64.243 226.762 64.9468 226.353C65.6506 225.944 66.2153 225.379 66.6408 224.659C67.0664 223.923 67.3774 223.072 67.5738 222.106C67.7866 221.14 67.893 220.101 67.893 218.988V218.472C67.893 217.392 67.7866 216.377 67.5738 215.428C67.3774 214.462 67.0582 213.611 66.6163 212.875C66.1907 212.122 65.6261 211.532 64.9223 211.107C64.2185 210.681 63.3673 210.469 62.3689 210.469C61.3705 210.469 60.5194 210.681 59.8156 211.107C59.1282 211.532 58.5635 212.122 58.1215 212.875C57.696 213.611 57.385 214.462 57.1886 215.428C56.9922 216.377 56.894 217.392 56.894 218.472ZM96.1515 205.436H102.559V231.116C102.559 233.539 102.019 235.593 100.939 237.279C99.8751 238.981 98.3857 240.266 96.4707 241.133C94.5557 242.017 92.3297 242.459 89.7927 242.459C88.6797 242.459 87.5013 242.312 86.2573 242.017C85.0298 241.722 83.8513 241.264 82.7219 240.642C81.6089 240.02 80.676 239.234 79.9231 238.285L83.0411 234.111C83.8595 235.061 84.8088 235.797 85.8891 236.321C86.9693 236.861 88.1641 237.131 89.4735 237.131C90.7502 237.131 91.8305 236.894 92.7143 236.419C93.5982 235.961 94.2774 235.282 94.7521 234.381C95.2267 233.498 95.4641 232.426 95.4641 231.165V211.573L96.1515 205.436ZM78.2782 219.037V218.521C78.2782 216.492 78.5237 214.65 79.0147 212.997C79.5221 211.328 80.2341 209.896 81.1507 208.701C82.0836 207.506 83.213 206.581 84.5387 205.927C85.8645 205.272 87.3621 204.944 89.0316 204.944C90.7993 204.944 92.2806 205.272 93.4754 205.927C94.6702 206.581 95.6523 207.514 96.4216 208.725C97.1908 209.92 97.7882 211.336 98.2138 212.973C98.6557 214.593 98.9994 216.369 99.245 218.3V219.43C98.9994 221.279 98.6312 222.998 98.1401 224.586C97.6491 226.173 97.0026 227.564 96.2006 228.759C95.3986 229.938 94.4002 230.854 93.2053 231.509C92.0269 232.164 90.6193 232.491 88.9825 232.491C87.3458 232.491 85.8645 232.155 84.5387 231.484C83.2293 230.813 82.1082 229.872 81.1752 228.661C80.2423 227.45 79.5221 226.026 79.0147 224.389C78.5237 222.752 78.2782 220.968 78.2782 219.037ZM85.3489 218.521V219.037C85.3489 220.134 85.4553 221.157 85.6681 222.106C85.8809 223.055 86.2082 223.898 86.6501 224.635C87.1084 225.355 87.6731 225.919 88.3442 226.329C89.0316 226.721 89.8418 226.918 90.7748 226.918C92.0678 226.918 93.1235 226.648 93.9419 226.108C94.7603 225.551 95.374 224.79 95.7832 223.824C96.1924 222.859 96.4297 221.746 96.4952 220.485V217.269C96.4625 216.238 96.3234 215.313 96.0778 214.495C95.8323 213.66 95.4886 212.948 95.0467 212.359C94.6048 211.77 94.0319 211.311 93.3281 210.984C92.6243 210.657 91.7895 210.493 90.8239 210.493C89.8909 210.493 89.0807 210.706 88.3933 211.131C87.7222 211.541 87.1575 212.105 86.6992 212.825C86.2573 213.546 85.9218 214.397 85.6926 215.379C85.4635 216.344 85.3489 217.392 85.3489 218.521ZM115.522 205.436V232H108.427V205.436H115.522ZM107.985 198.512C107.985 197.481 108.345 196.63 109.065 195.959C109.786 195.288 110.751 194.952 111.963 194.952C113.157 194.952 114.115 195.288 114.835 195.959C115.572 196.63 115.94 197.481 115.94 198.512C115.94 199.543 115.572 200.394 114.835 201.065C114.115 201.736 113.157 202.072 111.963 202.072C110.751 202.072 109.786 201.736 109.065 201.065C108.345 200.394 107.985 199.543 107.985 198.512ZM128.289 211.107V232H121.218V205.436H127.847L128.289 211.107ZM127.258 217.785H125.343C125.343 215.821 125.597 214.053 126.104 212.482C126.611 210.894 127.323 209.544 128.24 208.431C129.157 207.301 130.245 206.442 131.505 205.853C132.782 205.247 134.206 204.944 135.777 204.944C137.021 204.944 138.159 205.125 139.19 205.485C140.221 205.845 141.105 206.418 141.841 207.203C142.594 207.989 143.167 209.028 143.56 210.321C143.969 211.614 144.174 213.194 144.174 215.06V232H137.054V215.035C137.054 213.857 136.89 212.94 136.563 212.285C136.236 211.631 135.753 211.172 135.114 210.91C134.492 210.632 133.723 210.493 132.807 210.493C131.857 210.493 131.031 210.681 130.327 211.058C129.639 211.434 129.067 211.958 128.608 212.629C128.166 213.284 127.831 214.053 127.602 214.937C127.373 215.821 127.258 216.77 127.258 217.785Z" fill="black"/>
<g filter="url(#filter0_d_301_15)">
<rect x="30.5555" y="20.7031" width="107.5" height="356.25" rx="11.1914" fill="url(#paint1_linear_301_15)"/>
</g>
</g>
<defs>
<filter id="filter0_d_301_15" x="8.17273" y="0.558594" width="152.266" height="401.016" filterUnits="userSpaceOnUse" color-interpolation-filters="sRGB">
<feFlood flood-opacity="0" result="BackgroundImageFix"/>
<feColorMatrix in="SourceAlpha" type="matrix" values="0 0 0 0 0 0 0 0 0 0 0 0 0 0 0 0 0 0 127 0" result="hardAlpha"/>
<feOffset dy="2.23828"/>
<feGaussianBlur stdDeviation="11.1914"/>
<feColorMatrix type="matrix" values="0 0 0 0 0 0 0 0 0 0 0 0 0 0 0 0 0 0 0.04 0"/>
<feBlend mode="normal" in2="BackgroundImageFix" result="effect1_dropShadow_301_15"/>
<feBlend mode="normal" in="SourceGraphic" in2="effect1_dropShadow_301_15" result="shape"/>
</filter>
<linearGradient id="paint0_linear_301_15" x1="200" y1="0" x2="200" y2="400" gradientUnits="userSpaceOnUse">
<stop stop-color="#D9AFD9" stop-opacity="0.42"/>
<stop offset="1" stop-color="#97D9E1" stop-opacity="0.16"/>
</linearGradient>
<linearGradient id="paint1_linear_301_15" x1="43.1221" y1="20.7031" x2="177.758" y2="60.4574" gradientUnits="userSpaceOnUse">
<stop stop-color="white" stop-opacity="0.5"/>
<stop offset="1" stop-color="white" stop-opacity="0.2"/>
</linearGradient>
<clipPath id="clip0_301_15">
<rect width="400" height="400" fill="white"/>
</clipPath>
</defs>
</svg>
