<svg width="24" height="24" viewBox="0 0 24 24" fill="none" xmlns="http://www.w3.org/2000/svg">
<path d="M17.9391 20.0812C17.9391 20.025 17.9438 19.9687 17.9438 19.9125C17.9438 17.2312 17.9438 14.55 17.9438 11.8734C17.9438 11.7703 17.9719 11.7 18.0563 11.6344C19.6266 10.4625 21.1922 9.28591 22.7578 8.11404C22.786 8.09529 22.8141 8.07654 22.8469 8.0531C22.8469 11.5922 22.8469 15.1265 22.8469 18.6656C22.8375 18.6984 22.8235 18.7312 22.8188 18.764C22.7672 19.3734 22.2844 19.9125 21.6844 20.0297C21.6047 20.0437 21.5297 20.0625 21.45 20.0812C20.2781 20.0812 19.1063 20.0812 17.9391 20.0812Z" fill="#202020"/>
<path d="M6.03747 5.30625C6.05622 10.2609 6.07028 15.2203 6.08903 20.175C4.77184 20.175 3.45466 20.175 2.14216 20.175C1.9031 20.0813 1.5281 19.8984 1.31247 19.5188C1.27028 19.4438 1.15778 19.2375 1.13435 18.9141C1.08278 18.2484 1.08747 13.0078 1.13435 5.87344C1.14841 5.75625 1.28435 4.68282 2.22653 4.12969C2.32497 4.07344 2.99997 3.68907 3.83903 3.87657C4.12497 3.94219 4.34528 4.05 4.48591 4.13907C5.00153 4.52813 5.52184 4.91719 6.03747 5.30625Z" fill="#202020"/>
<path d="M22.8421 8.05311C22.7155 8.47498 22.2046 9.97967 20.653 10.9594C19.5421 11.6625 18.4499 11.7375 17.953 11.7422C15.9796 13.2328 14.0062 14.7234 12.0327 16.214C9.79209 14.5453 7.54678 12.8765 5.30615 11.2031C5.30615 9.05154 5.30615 6.89998 5.30615 4.74842C7.54678 6.44061 9.7874 8.13279 12.028 9.82498C14.5733 7.89842 17.1233 5.97186 19.6687 4.04529C19.8233 3.97967 20.6108 3.65154 21.4874 4.00779C22.6312 4.47186 22.889 5.68123 22.9077 5.77029C22.8843 6.53436 22.8655 7.29373 22.8421 8.05311Z" fill="#202020"/>
</svg>
