<svg width="24" height="24" viewBox="0 0 24 24" fill="none" xmlns="http://www.w3.org/2000/svg">
<g clip-path="url(#clip0_1002_329)">
<g clip-path="url(#clip1_1002_329)">
<path fill-rule="evenodd" clip-rule="evenodd" d="M4.96109 17.0044C5.04466 17.0126 5.10529 17.0814 5.09709 17.1551C5.0889 17.2304 5.01517 17.2845 4.93324 17.2747C4.85131 17.2649 4.78904 17.1977 4.79723 17.124C4.80379 17.0502 4.87752 16.9962 4.96109 17.0044Z" fill="#202020"/>
<path fill-rule="evenodd" clip-rule="evenodd" d="M5.36234 17.4533C5.44591 17.4615 5.50653 17.5303 5.49834 17.6041C5.49014 17.6794 5.41641 17.7335 5.33449 17.7253C5.25093 17.7171 5.1903 17.6483 5.1985 17.5746C5.20669 17.4992 5.28042 17.4451 5.36234 17.4533Z" fill="#202020"/>
<path fill-rule="evenodd" clip-rule="evenodd" d="M5.87041 18.2087C5.86222 18.2841 5.78848 18.3382 5.70655 18.3283C5.62462 18.3185 5.56236 18.2513 5.57055 18.1776C5.57874 18.1022 5.65248 18.0481 5.73441 18.0579C5.81798 18.0661 5.8786 18.1349 5.87041 18.2087Z" fill="#202020"/>
<path fill-rule="evenodd" clip-rule="evenodd" d="M6.21292 18.7461C6.29649 18.7543 6.35712 18.8231 6.34893 18.8968C6.34073 18.9722 6.267 19.0263 6.18507 19.0164C6.10314 19.0066 6.04087 18.9394 6.04906 18.8657C6.05562 18.792 6.12936 18.7379 6.21292 18.7461Z" fill="#202020"/>
<path fill-rule="evenodd" clip-rule="evenodd" d="M6.85844 19.2213C6.942 19.2295 7.00262 19.2966 6.99443 19.372C6.98624 19.4474 6.91251 19.5014 6.83058 19.4916C6.74702 19.4834 6.6864 19.4146 6.69459 19.3409C6.70114 19.2672 6.77487 19.2131 6.85844 19.2213Z" fill="#202020"/>
<path fill-rule="evenodd" clip-rule="evenodd" d="M7.78593 19.4736C7.86949 19.4818 7.93011 19.5506 7.92192 19.6244C7.91373 19.6998 7.84 19.7539 7.75807 19.7457C7.67451 19.7375 7.61389 19.6686 7.62208 19.5949C7.62863 19.5195 7.70236 19.4654 7.78593 19.4736Z" fill="#202020"/>
<path fill-rule="evenodd" clip-rule="evenodd" d="M8.64285 19.4032C8.72642 19.4114 8.78705 19.4802 8.77886 19.5539C8.77066 19.6293 8.69693 19.6834 8.615 19.6752C8.53307 19.667 8.4708 19.5982 8.479 19.5244C8.48555 19.4491 8.55929 19.395 8.64285 19.4032Z" fill="#202020"/>
<path fill-rule="evenodd" clip-rule="evenodd" d="M0.75 11.761C0.75 5.68037 5.68037 0.75 11.761 0.75C17.8416 0.75 22.772 5.68037 22.772 11.761C22.772 16.5341 19.7358 20.596 15.4903 22.1248C15.4903 22.0445 15.492 21.9626 15.492 21.8708C15.4969 21.2252 15.5034 20.2503 15.5034 19.313C15.5034 18.7887 15.4199 18.343 15.2855 17.9793C15.1856 17.7089 15.0594 17.4811 14.9185 17.296C16.1277 17.1272 17.3386 16.7831 18.284 15.9917C19.3343 15.1118 20.0455 13.6945 20.0455 11.3841C20.0455 10.7402 19.934 10.152 19.7309 9.61943C19.5293 9.09345 19.2377 8.62319 18.8739 8.207C18.9427 8.00874 19.0394 7.66464 19.0705 7.20749C19.1082 6.65039 19.046 5.92124 18.7133 5.08558L18.6789 4.9971L18.5872 4.97088C18.5839 4.96924 17.5434 4.63826 15.2871 6.14408C14.8431 6.02447 14.3843 5.93435 13.9206 5.87208C13.4176 5.8049 12.908 5.77049 12.3968 5.76721H12.3951C11.8839 5.76885 11.3727 5.80326 10.8696 5.87208C10.4059 5.93435 9.94713 6.02447 9.50309 6.14408C8.38069 5.39363 7.56797 5.10033 7.03708 4.99218C6.76509 4.93647 6.56191 4.92992 6.42918 4.93647C6.22601 4.9463 6.08345 5.0692 6.08181 5.0692L6.07362 5.08394C5.74264 5.9196 5.68201 6.64875 5.7197 7.20749C5.75083 7.66464 5.8475 8.00874 5.91632 8.207C5.55257 8.62483 5.25927 9.09509 5.05773 9.62106C4.85455 10.152 4.74313 10.7385 4.74313 11.3841H4.74149C4.74149 13.6896 5.45261 15.1069 6.50128 15.9901C7.44672 16.7848 8.65596 17.1354 9.86193 17.3058C9.76853 17.4304 9.68005 17.5729 9.60304 17.7351C9.48834 17.976 9.39822 18.2595 9.34251 18.5872C8.94271 18.7527 8.26435 18.946 7.59419 18.7543C7.13048 18.6216 6.66514 18.3021 6.28663 17.6532C6.25058 17.5893 5.58697 16.4407 4.34168 16.3522H4.33021C4.3253 16.3522 2.54584 16.3293 4.1385 17.4189L4.16472 17.4336C4.16636 17.4353 4.85782 17.7581 5.36086 19.0296C5.39035 19.1246 6.12933 21.3448 9.29008 20.7713C9.29336 21.1924 9.29663 21.5578 9.29991 21.8528C9.30155 22.1068 9.30483 22.2985 9.30483 22.5C4.40559 21.3809 0.75 16.9978 0.75 11.761Z" fill="#202020"/>
</g>
</g>
<defs>
<clipPath id="clip0_1002_329">
<rect width="24" height="24" fill="white"/>
</clipPath>
<clipPath id="clip1_1002_329">
<rect width="24" height="24" fill="white"/>
</clipPath>
</defs>
</svg>
