<svg width="24" height="24" viewBox="0 0 24 24" fill="none" xmlns="http://www.w3.org/2000/svg">
<g clip-path="url(#clip0_1002_332)">
<path d="M18.6166 6.34464C18.6107 6.94794 18.1139 7.44477 17.5047 7.44477C16.8954 7.44477 16.3927 6.95385 16.3927 6.34464C16.3927 5.74134 16.8954 5.24451 17.5047 5.24451C18.1139 5.24451 18.6166 5.74134 18.6166 6.34464Z" fill="black"/>
<path d="M11.6255 6.23224C8.26592 6.23224 5.53333 8.92343 5.53333 12.2534C5.53333 15.5834 8.26592 18.2746 11.6255 18.2746C14.985 18.2746 17.7176 15.5775 17.7176 12.2534C17.7176 8.92934 14.985 6.23224 11.6255 6.23224ZM11.6255 16.163C6.39687 16.163 6.39096 8.34379 11.6255 8.34379C16.8541 8.34379 16.86 16.163 11.6255 16.163Z" fill="black"/>
<path d="M21.7278 6.60489C21.5326 4.10889 19.9712 2.6657 17.9188 2.37588C17.4515 2.30491 17.3569 2.28716 14.9437 2.28125C6.3851 2.28716 4.51013 1.90862 2.82445 3.63571C1.23931 5.26817 1.5587 6.99526 1.5587 12.2534C1.5587 16.6185 0.789789 20.9894 4.8177 22.0186C6.07753 22.338 17.2327 22.338 18.4925 22.0186C20.1723 21.5927 21.5385 20.2442 21.7278 17.8961C21.7574 17.5648 21.7574 6.93612 21.7278 6.60489Z" stroke="black" stroke-width="2.5236" stroke-miterlimit="10"/>
</g>
<defs>
<clipPath id="clip0_1002_332">
<rect width="24" height="24" fill="white"/>
</clipPath>
</defs>
</svg>
