<svg width="24" height="24" viewBox="0 0 24 24" fill="none" xmlns="http://www.w3.org/2000/svg">
<path d="M20.7452 8.28968C20.7452 15.3786 14.9993 21.1297 7.90513 21.1297C5.37716 21.1297 3.02824 20.4029 1.04272 19.1389C4.92423 19.713 7.65234 17.2482 7.65234 17.2482C4.19743 16.9796 3.51277 14.0988 3.51277 14.0988C4.73463 14.3094 5.50355 14.0145 5.50355 14.0145C1.61152 13.1034 1.94332 9.54314 1.94332 9.54314C2.84391 10.0803 3.8867 10.1277 3.8867 10.1277C0.447596 7.10469 2.60165 4.17119 2.60165 4.17119C6.20928 8.53722 11.5022 8.83215 11.8498 8.84268C11.7708 8.51615 11.734 8.17382 11.734 7.82096C11.734 5.33511 13.7511 3.31799 16.2369 3.31799C17.5325 3.31799 18.7017 3.86572 19.5233 4.74525C19.7498 4.68205 19.9762 4.61358 20.1816 4.53985C21.4562 4.11325 22.3673 3.62872 22.3673 3.62872C22.1461 4.94538 20.524 6.05137 20.4134 6.13037C20.4081 6.13037 20.4081 6.13564 20.4081 6.13564H20.4134C21.6563 6.00924 22.9203 5.48784 22.9571 5.47731C22.5779 6.28837 20.9927 7.56289 20.7399 7.76302C20.7399 7.93682 20.7452 8.11589 20.7452 8.28968Z" fill="#202020"/>
</svg>
