<svg width="32" height="32" viewBox="0 0 32 32" fill="none" xmlns="http://www.w3.org/2000/svg">
<path d="M9.04878 16C9.04878 14.6097 9.12195 13.2561 9.23171 11.9756H1.54878C1.18293 13.2561 1 14.6097 1 16C1 17.3902 1.18293 18.7439 1.54878 20.0244H9.23171C9.12195 18.7439 9.04878 17.3902 9.04878 16Z" fill="black"/>
<path d="M12.7805 1.36588C7.87807 2.46344 3.85368 5.93905 2.02441 10.5122H9.41466C10 6.48783 11.2073 3.23173 12.7805 1.36588Z" fill="black"/>
<path d="M19.2195 30.6342C24.1219 29.5366 28.1463 26.061 29.9756 21.4878H22.5853C22 25.5122 20.7927 28.7317 19.2195 30.6342Z" fill="black"/>
<path d="M2.02441 21.4878C3.85368 26.061 7.84149 29.5732 12.7805 30.6342C11.2073 28.7317 10 25.5122 9.41466 21.4878H2.02441Z" fill="black"/>
<path d="M30.4512 11.9756H22.7683C22.9147 13.2561 22.9512 14.6097 22.9512 16C22.9512 17.3902 22.8781 18.7439 22.7683 20.0244H30.4512C30.8171 18.7439 31 17.3902 31 16C31 14.6097 30.8171 13.2561 30.4512 11.9756Z" fill="black"/>
<path d="M29.9756 10.5122C28.1463 5.93905 24.1585 2.42685 19.2195 1.36588C20.7927 3.26831 22 6.52441 22.5853 10.5122H29.9756Z" fill="black"/>
<path d="M21.0487 10.5122C20.2804 5.35366 18.4146 1 16 1C13.5853 1 11.7195 5.35366 10.9512 10.5122H21.0487Z" fill="black"/>
<path d="M10.5122 16C10.5122 17.317 10.5854 18.7073 10.7317 20.0244H21.2317C21.3781 18.7073 21.4512 17.317 21.4512 16C21.4512 14.6829 21.3781 13.2927 21.2317 11.9756H10.7317C10.5854 13.2927 10.5122 14.6829 10.5122 16Z" fill="black"/>
<path d="M10.9512 21.4878C11.756 26.6464 13.6219 31 16 31C18.378 31 20.2804 26.6464 21.0487 21.4878H10.9512Z" fill="black"/>
</svg>
