<?xml version="1.0" encoding="utf-8"?>
<!-- Generator: Adobe Illustrator 24.3.0, SVG Export Plug-In . SVG Version: 6.00 Build 0)  -->
<svg version="1.1" id="Capa_1" xmlns="http://www.w3.org/2000/svg" xmlns:xlink="http://www.w3.org/1999/xlink" x="0px" y="0px"
	 viewBox="0 0 512 512" style="enable-background:new 0 0 512 512;" xml:space="preserve">
<style type="text/css">
	.st0{fill:#202020;}
</style>
<g>
	<path class="st0" d="M382.7,428.4c0-1.2,0.1-2.4,0.1-3.6c0-57.2,0-114.4,0-171.5c0-2.2,0.6-3.7,2.4-5.1
		c33.5-25,66.9-50.1,100.3-75.1c0.6-0.4,1.2-0.8,1.9-1.3c0,75.5,0,150.9,0,226.4c-0.2,0.7-0.5,1.4-0.6,2.1
		c-1.1,13-11.4,24.5-24.2,27c-1.7,0.3-3.3,0.7-5,1.1C432.6,428.4,407.6,428.4,382.7,428.4z"/>
	<path class="st0" d="M128.8,113.2c0.4,105.7,0.7,211.5,1.1,317.2c-28.1,0-56.2,0-84.2,0c-5.1-2-13.1-5.9-17.7-14
		c-0.9-1.6-3.3-6-3.8-12.9c-1.1-14.2-1-126,0-278.2c0.3-2.5,3.2-25.4,23.3-37.2c2.1-1.2,16.5-9.4,34.4-5.4
		c6.1,1.4,10.8,3.7,13.8,5.6C106.7,96.6,117.8,104.9,128.8,113.2z"/>
	<path class="st0" d="M487.3,171.8c-2.7,9-13.6,41.1-46.7,62c-23.7,15-47,16.6-57.6,16.7c-42.1,31.8-84.2,63.6-126.3,95.4
		C208.9,310.3,161,274.7,113.2,239c0-45.9,0-91.8,0-137.7c47.8,36.1,95.6,72.2,143.4,108.3c54.3-41.1,108.7-82.2,163-123.3
		c3.3-1.4,20.1-8.4,38.8-0.8c24.4,9.9,29.9,35.7,30.3,37.6C488.2,139.4,487.8,155.6,487.3,171.8z"/>
</g>
</svg>
