<?xml version="1.0" encoding="utf-8"?>
<!-- Generator: Adobe Illustrator 24.3.0, SVG Export Plug-In . SVG Version: 6.00 Build 0)  -->
<svg version="1.1" id="Layer_1" xmlns="http://www.w3.org/2000/svg" xmlns:xlink="http://www.w3.org/1999/xlink" x="0px" y="0px"
	 viewBox="0 0 408.8 408.8" style="enable-background:new 0 0 408.8 408.8;" xml:space="preserve">
<style type="text/css">
	.st0{fill:#202020;}
</style>
<path class="st0" d="M292.2,172.4l-5.6,47.1c-0.5,4.5-4.4,7.9-8.9,7.9h-50.5l-0.3,146.1h-63.5l0.3-146.1h-38c-4.9,0-8.9-4-9-8.9
	l-0.2-47.1c0-5,4-9,9-9h37.9v-45.5c0-52.8,32.2-81.6,79.3-81.6h38.6c4.9,0,9,4,9,9V84c0,4.9-4,9-9,9h-23.7C232,93,227,105.2,227,123
	v39.4h56.3C288.7,162.4,292.8,167.1,292.2,172.4z"/>
</svg>
