<?xml version="1.0" encoding="utf-8"?>
<!-- Generator: Adobe Illustrator 24.3.0, SVG Export Plug-In . SVG Version: 6.00 Build 0)  -->
<svg version="1.1" id="Capa_1" xmlns="http://www.w3.org/2000/svg" xmlns:xlink="http://www.w3.org/1999/xlink" x="0px" y="0px"
	 viewBox="0 0 2048 2048" style="enable-background:new 0 0 2048 2048;" xml:space="preserve">
<style type="text/css">
	.st0{fill-rule:evenodd;clip-rule:evenodd;fill:#202020;}
	.st1{fill:none;}
</style>
<g id="Layer_x0020_1">
	<path class="st0" d="M609,1344c5.1,0.5,8.8,4.7,8.3,9.2c-0.5,4.6-5,7.9-10,7.3s-8.8-4.7-8.3-9.2
		C599.4,1346.8,603.9,1343.5,609,1344z"/>
	<path class="st0" d="M633.5,1371.4c5.1,0.5,8.8,4.7,8.3,9.2c-0.5,4.6-5,7.9-10,7.4c-5.1-0.5-8.8-4.7-8.3-9.2
		C624,1374.2,628.5,1370.9,633.5,1371.4z"/>
	<path class="st0" d="M664.5,1417.5c-0.5,4.6-5,7.9-10,7.3s-8.8-4.7-8.3-9.2c0.5-4.6,5-7.9,10-7.3
		C661.3,1408.8,665,1413,664.5,1417.5z"/>
	<path class="st0" d="M685.4,1450.3c5.1,0.5,8.8,4.7,8.3,9.2c-0.5,4.6-5,7.9-10,7.3s-8.8-4.7-8.3-9.2
		C675.8,1453.1,680.3,1449.8,685.4,1450.3z"/>
	<path class="st0" d="M724.8,1479.3c5.1,0.5,8.8,4.6,8.3,9.2s-5,7.9-10,7.3c-5.1-0.5-8.8-4.7-8.3-9.2
		C715.2,1482.1,719.7,1478.8,724.8,1479.3z"/>
	<path class="st0" d="M781.4,1494.7c5.1,0.5,8.8,4.7,8.3,9.2c-0.5,4.6-5,7.9-10,7.4c-5.1-0.5-8.8-4.7-8.3-9.2
		C771.8,1497.5,776.3,1494.2,781.4,1494.7z"/>
	<path class="st0" d="M833.7,1490.4c5.1,0.5,8.8,4.7,8.3,9.2c-0.5,4.6-5,7.9-10,7.4s-8.8-4.7-8.3-9.2
		C824.1,1493.2,828.6,1489.9,833.7,1490.4z"/>
	<path class="st0" d="M352,1024c0-371.1,300.9-672,672-672s672,300.9,672,672c0,291.3-185.3,539.2-444.4,632.5
		c0-4.9,0.1-9.9,0.1-15.5c0.3-39.4,0.7-98.9,0.7-156.1c0-32-5.1-59.2-13.3-81.4c-6.1-16.5-13.8-30.4-22.4-41.7
		c73.8-10.3,147.7-31.3,205.4-79.6c64.1-53.7,107.5-140.2,107.5-281.2c0-39.3-6.8-75.2-19.2-107.7c-12.3-32.1-30.1-60.8-52.3-86.2
		c4.2-12.1,10.1-33.1,12-61c2.3-34-1.5-78.5-21.8-129.5l-2.1-5.4l-5.6-1.6c-0.2-0.1-63.7-20.3-201.4,71.6
		c-27.1-7.3-55.1-12.8-83.4-16.6c-30.7-4.1-61.8-6.2-93-6.4h-0.1c-31.2,0.1-62.4,2.2-93.1,6.4c-28.3,3.8-56.3,9.3-83.4,16.6
		c-68.5-45.8-118.1-63.7-150.5-70.3c-16.6-3.4-29-3.8-37.1-3.4c-12.4,0.6-21.1,8.1-21.2,8.1l-0.5,0.9c-20.2,51-23.9,95.5-21.6,129.6
		c1.9,27.9,7.8,48.9,12,61c-22.2,25.5-40.1,54.2-52.4,86.3c-12.4,32.4-19.2,68.2-19.2,107.6h-0.1c0,140.7,43.4,227.2,107.4,281.1
		c57.7,48.5,131.5,69.9,205.1,80.3c-5.7,7.6-11.1,16.3-15.8,26.2c-7,14.7-12.5,32-15.9,52c-24.4,10.1-65.8,21.9-106.7,10.2
		c-28.3-8.1-56.7-27.6-79.8-67.2c-2.2-3.9-42.7-74-118.7-79.4h-0.7c-0.3,0-108.9-1.4-11.7,65.1l1.6,0.9c0.1,0.1,42.3,19.8,73,97.4
		c1.8,5.8,46.9,141.3,239.8,106.3c0.2,25.7,0.4,48,0.6,66c0.1,15.5,0.3,27.2,0.3,39.5C575.1,1611.1,352,1343.6,352,1024z"/>
</g>
<rect class="st1" width="2048" height="2048"/>
</svg>
