<svg width="32" height="32" viewBox="0 0 32 32" fill="none" xmlns="http://www.w3.org/2000/svg">
<path fill-rule="evenodd" clip-rule="evenodd" d="M6.61471 22.6725C6.72613 22.6834 6.80697 22.7751 6.79604 22.8734C6.78512 22.9739 6.68681 23.046 6.57757 23.0329C6.46833 23.0198 6.38531 22.9302 6.39623 22.8319C6.40497 22.7336 6.50328 22.6615 6.61471 22.6725Z" fill="#202020"/>
<path fill-rule="evenodd" clip-rule="evenodd" d="M7.14987 23.2711C7.26129 23.282 7.34212 23.3738 7.3312 23.4721C7.32027 23.5726 7.22196 23.6447 7.11273 23.6338C7.00132 23.6229 6.92049 23.5311 6.93141 23.4328C6.94233 23.3322 7.04064 23.2601 7.14987 23.2711Z" fill="#202020"/>
<path fill-rule="evenodd" clip-rule="evenodd" d="M7.82723 24.2783C7.81631 24.3788 7.71799 24.4509 7.60876 24.4378C7.49952 24.4247 7.4165 24.3351 7.42742 24.2368C7.43834 24.1362 7.53666 24.0641 7.6459 24.0772C7.75732 24.0882 7.83816 24.1799 7.82723 24.2783Z" fill="#202020"/>
<path fill-rule="evenodd" clip-rule="evenodd" d="M8.2839 24.9948C8.39532 25.0057 8.47616 25.0975 8.46523 25.1958C8.45431 25.2963 8.35599 25.3683 8.24676 25.3552C8.13752 25.3421 8.0545 25.2526 8.06542 25.1543C8.07416 25.056 8.17247 24.9839 8.2839 24.9948Z" fill="#202020"/>
<path fill-rule="evenodd" clip-rule="evenodd" d="M9.14468 25.6284C9.2561 25.6393 9.33693 25.7289 9.32601 25.8294C9.31509 25.9298 9.21678 26.0019 9.10755 25.9888C8.99613 25.9779 8.9153 25.8861 8.92622 25.7878C8.93496 25.6895 9.03327 25.6175 9.14468 25.6284Z" fill="#202020"/>
<path fill-rule="evenodd" clip-rule="evenodd" d="M10.3813 25.9648C10.4927 25.9758 10.5736 26.0675 10.5626 26.1659C10.5517 26.2664 10.4534 26.3385 10.3442 26.3276C10.2328 26.3167 10.1519 26.2249 10.1629 26.1265C10.1716 26.026 10.2699 25.9539 10.3813 25.9648Z" fill="#202020"/>
<path fill-rule="evenodd" clip-rule="evenodd" d="M11.5238 25.8709C11.6352 25.8818 11.716 25.9736 11.7051 26.0719C11.6942 26.1724 11.5959 26.2445 11.4866 26.2336C11.3774 26.2227 11.2944 26.1309 11.3053 26.0326C11.314 25.932 11.4123 25.8599 11.5238 25.8709Z" fill="#202020"/>
<path fill-rule="evenodd" clip-rule="evenodd" d="M1 15.6813C1 7.57383 7.57383 1 15.6813 1C23.7888 1 30.3627 7.57383 30.3627 15.6813C30.3627 22.0454 26.3144 27.4614 20.6538 29.4997C20.6538 29.3926 20.6559 29.2834 20.6559 29.1611C20.6625 28.3003 20.6712 27.0004 20.6712 25.7507C20.6712 25.0516 20.5598 24.4574 20.3807 23.9724C20.2474 23.6119 20.0792 23.3082 19.8913 23.0613C21.5036 22.8363 23.1181 22.3775 24.3787 21.3223C25.7791 20.1491 26.7273 18.2593 26.7273 15.1788C26.7273 14.3203 26.5787 13.5359 26.3078 12.8259C26.0391 12.1246 25.6502 11.4976 25.1652 10.9427C25.257 10.6783 25.3859 10.2195 25.4274 9.60999C25.4776 8.86718 25.3946 7.89498 24.9511 6.78077L24.9052 6.6628L24.7829 6.62784C24.7785 6.62566 23.3912 6.18435 20.3829 8.19211C19.7908 8.03262 19.1791 7.91246 18.5608 7.82944C17.8901 7.73987 17.2106 7.69399 16.529 7.68962H16.5268C15.8452 7.6918 15.1636 7.73768 14.4928 7.82944C13.8746 7.91246 13.2628 8.03262 12.6708 8.19211C11.1743 7.1915 10.0906 6.80044 9.38278 6.65625C9.02012 6.58197 8.74921 6.57323 8.57225 6.58196C8.30134 6.59507 8.11127 6.75893 8.10909 6.75893L8.09816 6.77859C7.65685 7.8928 7.57601 8.865 7.62626 9.60999C7.66777 10.2195 7.79667 10.6783 7.88843 10.9427C7.40342 11.4998 7.01236 12.1268 6.74364 12.8281C6.47273 13.5359 6.32417 14.3181 6.32417 15.1788H6.32198C6.32198 18.2528 7.27015 20.1425 8.66838 21.3201C9.92896 22.3797 11.5413 22.8472 13.1492 23.0744C13.0247 23.2405 12.9067 23.4305 12.8041 23.6468C12.6511 23.968 12.531 24.3459 12.4567 24.7829C11.9236 25.0035 11.0191 25.2613 10.1256 25.0057C9.50731 24.8288 8.88685 24.4027 8.38218 23.5376C8.33411 23.4524 7.4493 21.9209 5.78891 21.8029H5.77362C5.76706 21.8029 3.39446 21.7723 5.51801 23.2252L5.55296 23.2448C5.55515 23.247 6.4771 23.6774 7.14781 25.3728C7.18713 25.4995 8.17244 28.4598 12.3868 27.6951C12.3911 28.2566 12.3955 28.7438 12.3999 29.137C12.4021 29.4757 12.4064 29.7313 12.4064 30C5.87411 28.5078 1 22.6637 1 15.6813Z" fill="#202020"/>
</svg>
