<?xml version="1.0" encoding="utf-8"?>
<!-- Generator: Adobe Illustrator 24.3.0, SVG Export Plug-In . SVG Version: 6.00 Build 0)  -->
<svg version="1.1" id="Capa_1" xmlns="http://www.w3.org/2000/svg" xmlns:xlink="http://www.w3.org/1999/xlink" x="0px" y="0px"
	 viewBox="0 0 512 512" style="enable-background:new 0 0 512 512;" xml:space="preserve">
<style type="text/css">
	.st0{fill:#202020;}
</style>
<g>
	<path class="st0" d="M338.9,189.6c-0.1,8.2-6.8,14.9-15.1,14.9c-8.3,0-15.1-6.7-15.1-14.9s6.8-14.9,15.1-14.9
		C332.1,174.6,338.9,181.4,338.9,189.6z"/>
	<path class="st0" d="M256.5,192.1c-35.7,0-64.7,28.6-64.7,63.9s29,63.9,64.7,63.9s64.7-28.6,64.7-63.9S292.2,192.1,256.5,192.1z
		 M256.5,297.5c-55.5,0-55.6-83,0-83C312,214.5,312.1,297.5,256.5,297.5z"/>
	<path class="st0" d="M426.8,160.5c-3.3-42.2-29.7-66.6-64.4-71.5c-7.9-1.2-9.5-1.5-50.3-1.6c-144.7,0.1-176.4-6.3-204.9,22.9
		C80.4,137.9,85.8,167.1,85.8,256c0,73.8-13,147.7,55.1,165.1c21.3,5.4,209.9,5.4,231.2,0c28.4-7.2,51.5-30,54.7-69.7
		C427.3,345.8,427.3,166.1,426.8,160.5z M375.8,337.6c-18.9,48.1-69.9,42.9-119.4,42.9c-51.3,0-100.7,4.5-119.4-42.9
		c-7.7-19.5-6.6-49.5-6.6-81.5c0-36.5-1.1-62,6.6-81.5c18.7-47.5,67.7-42.9,119.4-42.9h0.1c47.9,0,80.7-3,104.8,20.9
		c23.9,23.6,21.2,55,21.2,103.6C382.4,292.7,383.5,317.8,375.8,337.6z"/>
</g>
</svg>
