<svg width="32" height="32" viewBox="0 0 32 32" fill="none" xmlns="http://www.w3.org/2000/svg">
<path d="M24.8222 8.45955C24.8143 9.26395 24.1518 9.9264 23.3396 9.9264C22.5273 9.9264 21.8569 9.27184 21.8569 8.45955C21.8569 7.65515 22.5273 6.99271 23.3396 6.99271C24.1518 6.99271 24.8222 7.65515 24.8222 8.45955Z" fill="black"/>
<path d="M15.5007 8.30966C11.0213 8.30966 7.37787 11.8979 7.37787 16.3379C7.37787 20.7779 11.0213 24.3661 15.5007 24.3661C19.9801 24.3661 23.6236 20.77 23.6236 16.3379C23.6236 11.9058 19.9801 8.30966 15.5007 8.30966ZM15.5007 21.5507C8.52926 21.5507 8.52138 11.1251 15.5007 11.1251C22.4722 11.1251 22.4801 21.5507 15.5007 21.5507Z" fill="black"/>
<path d="M28.9704 8.80652C28.7102 5.47852 26.6282 3.55427 23.8917 3.16784C23.2687 3.07321 23.1425 3.04955 19.9249 3.04166C8.51346 3.04955 6.01351 2.54483 3.76593 4.84762C1.65241 7.02423 2.07827 9.32702 2.07827 16.3379C2.07827 22.158 1.05305 27.9859 6.4236 29.3581C8.10337 29.784 22.9769 29.784 24.6566 29.3581C26.8963 28.7903 28.7181 26.9922 28.9704 23.8614C29.0099 23.4198 29.0099 9.24815 28.9704 8.80652Z" stroke="black" stroke-width="2.5236" stroke-miterlimit="10"/>
</svg>
