<?xml version="1.0" encoding="utf-8"?>
<!-- Generator: Adobe Illustrator 24.3.0, SVG Export Plug-In . SVG Version: 6.00 Build 0)  -->
<svg version="1.1" id="Capa_1" xmlns="http://www.w3.org/2000/svg" xmlns:xlink="http://www.w3.org/1999/xlink" x="0px" y="0px"
	 viewBox="0 0 512 512" style="enable-background:new 0 0 512 512;" xml:space="preserve">
<style type="text/css">
	.st0{fill:#202020;}
	.st1{fill:none;stroke:#202020;stroke-width:30;stroke-miterlimit:10;}
</style>
<g>
	<path class="st0" d="M374.2,156.1c-0.1,10.2-8.5,18.6-18.8,18.6c-10.3,0-18.8-8.3-18.8-18.6c0-10.2,8.5-18.6,18.8-18.6
		C365.7,137.5,374.2,145.9,374.2,156.1z"/>
	<path class="st0" d="M256,154.2c-56.8,0-103,45.5-103,101.8s46.2,101.8,103,101.8S359,312.2,359,256S312.8,154.2,256,154.2z
		 M256,322.1c-88.4,0-88.5-132.2,0-132.2C344.4,189.9,344.5,322.1,256,322.1z"/>
	<path class="st1" d="M426.8,160.5c-3.3-42.2-29.7-66.6-64.4-71.5c-7.9-1.2-9.5-1.5-50.3-1.6c-144.7,0.1-176.4-6.3-204.9,22.9
		C80.4,137.9,85.8,167.1,85.8,256c0,73.8-13,147.7,55.1,165.1c21.3,5.4,209.9,5.4,231.2,0c28.4-7.2,51.5-30,54.7-69.7
		C427.3,345.8,427.3,166.1,426.8,160.5z"/>
</g>
</svg>
