<?xml version="1.0" encoding="utf-8"?>
<!-- Generator: Adobe Illustrator 24.3.0, SVG Export Plug-In . SVG Version: 6.00 Build 0)  -->
<svg version="1.1" id="Capa_1" xmlns="http://www.w3.org/2000/svg" xmlns:xlink="http://www.w3.org/1999/xlink" x="0px" y="0px"
	 viewBox="0 0 455.7 455.7" style="enable-background:new 0 0 455.7 455.7;" xml:space="preserve">
<style type="text/css">
	.st0{fill:#202020;}
</style>
<path class="st0" d="M393.9,157.4c0,134.6-109.1,243.8-243.8,243.8c-48,0-92.6-13.8-130.3-37.8c73.7,10.9,125.5-35.9,125.5-35.9
	c-65.6-5.1-78.6-59.8-78.6-59.8c23.2,4,37.8-1.6,37.8-1.6c-73.9-17.3-67.6-84.9-67.6-84.9c17.1,10.2,36.9,11.1,36.9,11.1
	C8.5,134.9,49.4,79.2,49.4,79.2c68.5,82.9,169,88.5,175.6,88.7c-1.5-6.2-2.2-12.7-2.2-19.4c0-47.2,38.3-85.5,85.5-85.5
	c24.6,0,46.8,10.4,62.4,27.1c4.3-1.2,8.6-2.5,12.5-3.9c24.2-8.1,41.5-17.3,41.5-17.3c-4.2,25-35,46-37.1,47.5
	c-0.1,0-0.1,0.1-0.1,0.1h0.1c23.6-2.4,47.6-12.3,48.3-12.5c-7.2,15.4-37.3,39.6-42.1,43.4C393.8,150.7,393.9,154.1,393.9,157.4z"/>
</svg>
