<?xml version="1.0" encoding="utf-8"?>
<!-- Generator: Adobe Illustrator 24.3.0, SVG Export Plug-In . SVG Version: 6.00 Build 0)  -->
<svg version="1.1" id="Layer_1" xmlns="http://www.w3.org/2000/svg" xmlns:xlink="http://www.w3.org/1999/xlink" x="0px" y="0px"
	 viewBox="0 0 408.8 408.8" style="enable-background:new 0 0 408.8 408.8;" xml:space="preserve">
<style type="text/css">
	.st0{fill-rule:evenodd;clip-rule:evenodd;fill:#202020;}
</style>
<path class="st0" d="M323.2,84.5c-31.7-31.7-73.7-49.1-118.6-49.1c-92.4,0-167.5,75.2-167.6,167.6c0,29.5,7.7,58.3,22.4,83.8
	l-23.7,86.9l88.9-23.3c24.5,13.3,52,20.4,80.1,20.4h0.1c92.4,0,167.6-75.2,167.6-167.6C372.3,158.3,354.9,116.2,323.2,84.5z
	 M204.7,342.4L204.7,342.4c-25.1,0-49.6-6.7-70.9-19.4l-5.1-3l-52.7,13.8L90,282.4l-3.3-5.3c-13.9-22.2-21.3-47.8-21.3-74.1
	c0.1-76.8,62.5-139.3,139.4-139.3c37.2,0,72.2,14.5,98.5,40.8c26.3,26.3,40.8,61.3,40.8,98.5C343.9,279.9,281.5,342.4,204.7,342.4z
	 M281.1,238c-4.2-2.1-24.8-12.2-28.6-13.6c-3.9-1.4-6.6-2.1-9.4,2.1c-2.8,4.2-10.8,13.6-13.3,16.4c-2.4,2.8-4.9,3.1-9.1,1.1
	c-4.2-2.1-17.7-6.5-33.7-20.8c-12.4-11.1-20.8-24.8-23.3-29c-2.4-4.2,0-6.2,1.9-8.6c4.5-5.6,9.1-11.5,10.5-14.3
	c1.4-2.8,0.7-5.2-0.4-7.4s-9.4-22.7-12.9-31.1c-3.4-8.1-6.9-7-9.4-7.2c-2.4-0.1-5.2-0.2-8-0.2s-7.4,1.1-11.2,5.2
	c-3.9,4.2-14.7,14.3-14.7,34.9s15,40.5,17.1,43.3c2.1,2.8,29.5,45.1,71.5,63.2c10,4.3,17.8,6.9,23.9,8.8c10,3.2,19.1,2.8,26.4,1.6
	c8-1.2,24.8-10.2,28.2-19.9c3.5-9.8,3.5-18.1,2.4-19.9C288.1,241.2,285.3,240.1,281.1,238z"/>
</svg>
