<svg width="55" height="49" viewBox="0 0 55 49" fill="none" xmlns="http://www.w3.org/2000/svg">
<path d="M14.8787 45.4274L14.8485 47.4688C13.4016 46.7129 4.9116 42.1013 2.27734 31.9901C-0.088106 22.9097 3.47767 14.0209 8.86838 8.70944C18.8498 -1.12393 37.35 -0.88779 46.8255 9.62459C52.5252 15.9488 54.8921 25.9179 51.5858 34.6746C49.2786 40.7785 44.9466 44.3479 42.7982 45.8846C42.8993 44.6884 43.0009 43.4897 43.103 42.2886C43.0591 42.2075 42.6717 41.512 41.8214 41.3749C41.0071 41.2429 40.4321 41.7338 40.3566 41.8013L31.7523 36.1309V38.0811L31.3556 38.1112C31.3397 38.4967 31.2183 40.543 29.4932 42.1063C27.7682 43.6696 25.7406 43.5921 25.2216 43.5684C24.4763 43.5347 23.3967 43.4773 22.4753 42.6547C21.2814 41.5888 21.2534 40.037 21.2534 39.7291C21.2332 39.0592 21.2129 38.3893 21.1923 37.7193C21.1146 37.6476 20.6424 37.2262 19.9704 37.2887C19.368 37.3483 18.8434 37.7775 18.6277 38.3854V40.2193C18.6443 40.4497 18.7549 42.5406 17.1018 43.9366C15.5694 45.2286 13.5985 44.8826 13.4404 44.8503C12.0273 44.5632 10.6437 43.5203 10.6028 42.687C10.6028 42.6734 10.6028 42.6734 10.6028 42.1386C10.6028 41.6175 10.6028 41.1948 10.6028 40.9184H10.1801L10.2103 38.7551C10.8674 37.9143 11.7017 37.2281 12.6541 36.7453C15.3466 35.3924 18.0146 36.2285 18.6349 36.441C19.4172 36.0827 20.2799 35.9354 21.1369 36.0139L21.8082 35.4046C23.4283 33.7867 27.3614 33.6984 27.3614 33.6984C28.995 33.5959 30.6351 33.6982 32.2432 34.0028L40.7246 40.5847C41.3082 40.4631 41.9106 40.4631 42.4942 40.5847C42.7788 36.3393 43.0637 32.0937 43.3488 27.8479C42.9025 26.7419 42.3059 26.1971 41.8229 25.8978C40.6376 25.1714 39.5142 25.5819 38.8939 24.6776C38.6181 24.2803 38.3926 23.8504 38.2226 23.3978C38.1471 23.1333 38.0228 22.8853 37.856 22.6664C37.7216 22.4963 37.5613 22.2939 37.3069 22.24C37.0345 22.1826 36.9375 22.3549 36.5745 22.362C36.5436 22.362 36.1554 22.3664 35.9039 22.179C35.5208 21.8955 35.7285 21.3773 35.5373 20.7169C35.3375 20.0236 34.7014 19.3108 34.0121 19.1321C32.8872 18.8407 32.1318 20.0989 31.1435 19.6805C30.6706 19.4802 30.7245 19.1414 30.1674 18.9491C29.527 18.7287 29.3711 19.1465 28.4582 19.0711C27.5454 18.9957 27.3039 18.54 26.4457 18.5227C26.274 18.534 26.1031 18.4914 25.9569 18.4007C25.6356 18.1775 25.6931 17.7669 25.53 17.7303C25.2605 17.67 24.9844 18.7668 24.5539 18.7668C24.1665 18.7668 23.9962 17.8782 23.6993 17.9133C23.4916 17.9385 23.5354 18.3792 23.1502 19.1931C22.8576 19.8097 22.6542 19.9331 22.601 20.4133C22.5895 20.5131 22.5931 20.7234 22.601 21.1447C22.614 21.9156 22.6434 21.9206 22.601 21.9981C22.3804 22.4015 21.6947 22.0929 20.8918 22.5465C20.6877 22.6614 20.2701 22.8975 20.1012 23.3361C19.8798 23.9052 20.2895 24.2483 20.467 25.4082C20.582 26.1612 20.6395 26.538 20.467 26.871C20.0897 27.5989 19.1855 27.3261 18.0232 28.1508C17.5281 28.5093 17.1122 28.9657 16.8014 29.4916C16.6253 29.7751 16.3701 30.2603 15.9467 32.4775C15.6355 34.1155 15.6053 34.7514 15.0318 35.1591C14.7974 35.3256 14.7299 35.271 14.1161 35.4634C13.2341 35.7446 12.4005 36.159 11.6442 36.6922C11.4739 36.8128 11.3517 36.9076 11.2482 36.9872C10.7125 37.4018 10.2124 37.8604 9.75318 38.3582C9.73209 39.3535 9.71173 40.3488 9.69208 41.3441H10.119V43.2339C10.659 43.9748 11.3798 44.5654 12.2129 44.9495C13.0461 45.3336 13.9637 45.4984 14.8787 45.4281V45.4274Z" fill="#202020"/>
</svg>
