<svg width="65" height="64" viewBox="0 0 65 64" fill="none" xmlns="http://www.w3.org/2000/svg">
<path d="M4.47888 24.2667C4.47888 17.1727 4.47888 13.6257 5.86919 10.9161C7.09214 8.53273 9.04354 6.59498 11.4437 5.38058C14.1723 4 17.7443 4 24.8883 4H40.4639C47.6078 4 51.1798 4 53.9084 5.38058C56.3086 6.59498 58.26 8.53273 59.483 10.9161C60.8733 13.6257 60.8733 17.1727 60.8733 24.2667V39.7333C60.8733 46.8273 60.8733 50.3743 59.483 53.0839C58.26 55.4673 56.3086 57.405 53.9084 58.6194C51.1798 60 47.6078 60 40.4639 60H24.8883C17.7443 60 14.1723 60 11.4437 58.6194C9.04354 57.405 7.09214 55.4673 5.86919 53.0839C4.47888 50.3743 4.47888 46.8273 4.47888 39.7333V24.2667Z" fill="#330000"/>
<path d="M31.8068 39.1925H23.0678L21.2898 44.8179C21.2404 45.0269 21.0466 45.1749 20.8358 45.1647H16.4095C16.1571 45.1647 16.0688 45.0234 16.1447 44.7409L23.7109 22.5476C23.7866 22.3165 23.8623 22.0532 23.938 21.7577C24.0369 21.2437 24.0876 20.7212 24.0893 20.1973C24.0676 20.0426 24.2046 19.9059 24.3541 19.9276H30.3692C30.5454 19.9276 30.6463 19.9918 30.6719 20.1203L39.2596 44.7794C39.3352 45.0364 39.2596 45.1649 39.0326 45.1647H34.1145C33.942 45.1841 33.7773 45.0667 33.7362 44.895L31.8068 39.1925ZM24.4297 34.3378H30.4071C29.425 31.0054 28.3167 27.7169 27.4184 24.3585C26.4493 27.7225 25.3919 31.073 24.4297 34.3378Z" fill="#FF9A00"/>
<path d="M44.3663 24.0116C43.9805 24.0274 43.5957 23.9601 43.2371 23.814C42.8786 23.6679 42.5544 23.4464 42.2856 23.164C42.0176 22.8693 41.8095 22.5236 41.6731 22.1467C41.5368 21.7698 41.4749 21.3691 41.4911 20.9678C41.4773 20.5704 41.546 20.1746 41.6927 19.8061C41.8394 19.4376 42.0607 19.1048 42.3423 18.8294C42.6211 18.5568 42.9503 18.3432 43.3107 18.201C43.6711 18.0588 44.0556 17.9909 44.4419 18.001C45.35 18.001 46.0625 18.2771 46.5794 18.8294C46.8404 19.1164 47.0432 19.453 47.1763 19.8199C47.3094 20.1868 47.3701 20.5769 47.3549 20.9678C47.3708 21.3707 47.3069 21.7727 47.1672 22.15C47.0275 22.5273 46.8147 22.8721 46.5416 23.164C46.2561 23.4506 45.9155 23.6739 45.5411 23.8197C45.1667 23.9656 44.7667 24.031 44.3663 24.0116ZM41.7559 44.7792V26.3619C41.7559 26.1308 41.8564 26.0152 42.0586 26.0152H46.7119C46.9134 26.0152 47.0143 26.1307 47.0145 26.3619V44.7792C47.0145 45.0363 46.9136 45.1647 46.7119 45.1646H42.0964C41.8695 45.1646 41.756 45.0361 41.7559 44.7792Z" fill="#FF9A00"/>
</svg>
