<svg width="65" height="64" viewBox="0 0 65 64" fill="none" xmlns="http://www.w3.org/2000/svg">
<path d="M4.47888 24.2667C4.47888 17.1727 4.47888 13.6257 5.86919 10.9161C7.09214 8.53273 9.04354 6.59498 11.4437 5.38058C14.1723 4 17.7443 4 24.8883 4H40.4639C47.6078 4 51.1798 4 53.9084 5.38058C56.3086 6.59498 58.26 8.53273 59.483 10.9161C60.8733 13.6257 60.8733 17.1727 60.8733 24.2667V39.7333C60.8733 46.8273 60.8733 50.3743 59.483 53.0839C58.26 55.4673 56.3086 57.405 53.9084 58.6194C51.1798 60 47.6078 60 40.4639 60H24.8883C17.7443 60 14.1723 60 11.4437 58.6194C9.04354 57.405 7.09214 55.4673 5.86919 53.0839C4.47888 50.3743 4.47888 46.8273 4.47888 39.7333V24.2667Z" fill="#001E36"/>
<path d="M16.5634 45.0325V20.4068C16.5634 20.2393 16.6338 20.1436 16.7983 20.1436C19.2266 20.1436 21.6537 20 24.0826 20C28.0238 20 32.2913 21.3382 33.7871 25.4325C34.1396 26.4376 34.3276 27.4667 34.3276 28.5436C34.3276 30.6017 33.8576 32.3009 32.9177 33.641C30.2922 37.3847 25.7415 37.3265 21.6623 37.3265V45.0086C21.6942 45.236 21.4991 45.3436 21.3099 45.3436H16.8453C16.6573 45.3436 16.5634 45.2479 16.5634 45.0325ZM21.6858 24.7624V32.8034C23.3033 32.9211 24.9958 32.9339 26.5499 32.4205C28.2655 31.9291 29.2051 30.4543 29.2051 28.6872C29.2528 27.1814 28.4265 25.7366 27.0198 25.1932C25.4845 24.5592 23.3432 24.5213 21.6858 24.7624Z" fill="#31A8FF"/>
<path d="M48.9834 31.2148C48.2724 30.8427 47.5152 30.5705 46.7324 30.4056C45.7265 30.1706 41.7591 29.3474 41.7576 31.4074C41.7928 32.5575 43.6312 33.1209 44.4436 33.4495C47.2952 34.4216 50.5222 36.1594 50.4588 39.6528C50.546 44.0016 46.3028 45.7401 42.6655 45.7405C40.772 45.76 38.7994 45.4688 37.0665 44.6617C36.9011 44.5747 36.7946 44.3888 36.8017 44.1993V40.0381C36.783 39.8712 36.9633 39.7254 37.1043 39.8454C38.8022 40.8651 40.8148 41.3602 42.779 41.3866C43.6461 41.3866 45.3646 41.3031 45.3516 40.0381C45.3516 38.824 43.2958 38.2659 42.4763 37.9574C41.2885 37.5364 40.1622 36.9531 39.1283 36.2236C37.6834 35.2002 36.777 33.5594 36.8017 31.7542C36.7932 27.6594 40.6991 25.8214 44.2166 25.8205C45.8611 25.8071 47.6269 25.928 49.1576 26.5911C49.3778 26.6555 49.4234 26.8857 49.4225 27.092V30.9836C49.4364 31.2251 49.1663 31.3074 48.9834 31.2148Z" fill="#31A8FF"/>
</svg>
