<svg width="64" height="64" viewBox="0 0 64 64" fill="none" xmlns="http://www.w3.org/2000/svg">
<path d="M23.512 8H38.5853L22.9373 54.364C22.608 55.3413 21.692 55.9987 20.66 55.9987H8.92933C7.60399 55.9987 6.52933 54.924 6.52933 53.5987C6.52933 53.3373 6.57199 53.0787 6.65466 52.8307L21.2347 9.636C21.564 8.65867 22.48 8 23.512 8Z" fill="url(#paint0_linear_202_15)"/>
<path d="M45.416 39.0987H21.5133C20.9027 39.0973 20.4067 39.5933 20.4053 40.204C20.4053 40.512 20.532 40.8053 20.7573 41.0147L36.1173 55.3507C36.564 55.768 37.1533 56 37.7653 56H51.3L45.416 39.0987Z" fill="#0078D4"/>
<path d="M23.512 8C22.468 7.996 21.544 8.672 21.2293 9.66667L6.67333 52.7933C6.22666 54.0387 6.87466 55.412 8.12 55.8587C8.38133 55.952 8.65733 56 8.936 56H20.9707C21.8827 55.8373 22.6373 55.196 22.9453 54.3213L25.848 45.7667L36.216 55.4373C36.6507 55.7973 37.196 55.996 37.76 56H51.2453L45.3307 39.0987L28.0893 39.1027L38.64 8H23.512Z" fill="url(#paint1_linear_202_15)"/>
<path d="M42.7653 9.63333C42.436 8.65733 41.5213 8 40.4907 8H23.6907C24.72 8 25.636 8.65733 25.964 9.632L40.544 52.8307C40.968 54.0867 40.2933 55.448 39.0373 55.872C38.7907 55.9573 38.532 56 38.2707 56H55.0707C56.396 56 57.4707 54.9253 57.4707 53.5987C57.4707 53.3373 57.428 53.0787 57.344 52.832L42.7653 9.63333Z" fill="url(#paint2_linear_202_15)"/>
<defs>
<linearGradient id="paint0_linear_202_15" x1="29.0062" y1="11.5577" x2="13.3521" y2="57.8035" gradientUnits="userSpaceOnUse">
<stop stop-color="#114A8B"/>
<stop offset="1" stop-color="#0669BC"/>
</linearGradient>
<linearGradient id="paint1_linear_202_15" x1="33.8958" y1="33.1077" x2="30.275" y2="34.3327" gradientUnits="userSpaceOnUse">
<stop stop-opacity="0.3"/>
<stop offset="0.071" stop-opacity="0.2"/>
<stop offset="0.321" stop-opacity="0.1"/>
<stop offset="0.623" stop-opacity="0.05"/>
<stop offset="1" stop-opacity="0"/>
</linearGradient>
<linearGradient id="paint2_linear_202_15" x1="32.0167" y1="10.166" x2="49.2" y2="55.9473" gradientUnits="userSpaceOnUse">
<stop stop-color="#3CCBF4"/>
<stop offset="1" stop-color="#2892DF"/>
</linearGradient>
</defs>
</svg>
