<svg width="65" height="64" viewBox="0 0 65 64" fill="none" xmlns="http://www.w3.org/2000/svg">
<circle cx="32.9014" cy="32" r="28" fill="#1794D4"/>
<path d="M36.9014 14H32.9014V18H36.9014V14Z" fill="white"/>
<path d="M20.9014 20H24.9014V24H20.9014V20Z" fill="white"/>
<path d="M12.9045 33.8828C13.2462 39.6854 16.7019 48 28.9013 48C42.5013 48 48.568 38 49.9014 33C51.568 33 55.3014 32 56.9014 28C55.9014 27 51.9014 27 49.9014 28C49.9014 26.4 48.9014 23 46.9014 22C45.568 23.3333 43.5014 26.8 45.9014 30C44.9014 32 42.2348 32 40.9014 32H14.7872C13.7282 32 12.8422 32.8257 12.9045 33.8828Z" fill="white"/>
<path d="M18.9014 26H14.9014V30H18.9014V26Z" fill="white"/>
<path d="M20.9014 26H24.9014V30H20.9014V26Z" fill="white"/>
<path d="M30.9014 26H26.9014V30H30.9014V26Z" fill="white"/>
<path d="M32.9014 26H36.9014V30H32.9014V26Z" fill="white"/>
<path d="M42.9014 26H38.9014V30H42.9014V26Z" fill="white"/>
<path d="M30.9014 20H26.9014V24H30.9014V20Z" fill="white"/>
<path d="M32.9014 20H36.9014V24H32.9014V20Z" fill="white"/>
</svg>
