<svg width="65" height="64" viewBox="0 0 65 64" fill="none" xmlns="http://www.w3.org/2000/svg">
<g clip-path="url(#clip0_306_383)">
<path d="M58.1146 47.635C57.2613 48.0813 56.3813 48.4745 55.4796 48.8125C52.6095 49.8864 49.5691 50.4335 46.5046 50.4275C34.6746 50.4275 24.3696 42.29 24.3696 31.8475C24.3847 30.4469 24.7734 29.0757 25.4955 27.8755C26.2175 26.6753 27.2468 25.6895 28.4771 25.02C17.7771 25.47 15.0271 36.62 15.0271 43.1525C15.0271 61.6225 32.0496 63.495 35.7171 63.495C37.6946 63.495 40.6771 62.92 42.4671 62.355L42.7946 62.245C49.6827 59.8637 55.5549 55.2083 59.4446 49.045C59.5637 48.8573 59.6169 48.6352 59.5958 48.4139C59.5746 48.1926 59.4803 47.9847 59.3277 47.8229C59.1752 47.6612 58.9731 47.5549 58.7534 47.5209C58.5337 47.4869 58.3089 47.527 58.1146 47.635Z" fill="url(#paint0_linear_306_383)"/>
<path opacity="0.35" d="M58.1146 47.635C57.2613 48.0813 56.3813 48.4745 55.4796 48.8125C52.6095 49.8864 49.5691 50.4335 46.5046 50.4275C34.6746 50.4275 24.3696 42.29 24.3696 31.8475C24.3847 30.4469 24.7734 29.0757 25.4955 27.8755C26.2175 26.6753 27.2468 25.6895 28.4771 25.02C17.7771 25.47 15.0271 36.62 15.0271 43.1525C15.0271 61.6225 32.0496 63.495 35.7171 63.495C37.6946 63.495 40.6771 62.92 42.4671 62.355L42.7946 62.245C49.6827 59.8637 55.5549 55.2083 59.4446 49.045C59.5637 48.8573 59.6169 48.6352 59.5958 48.4139C59.5746 48.1926 59.4803 47.9847 59.3277 47.8229C59.1752 47.6612 58.9731 47.5549 58.7534 47.5209C58.5337 47.4869 58.3089 47.527 58.1146 47.635Z" fill="url(#paint1_radial_306_383)"/>
<path d="M26.7796 60.355C24.5498 58.971 22.6173 57.1575 21.0946 55.02C19.3591 52.6422 18.1648 49.9135 17.5955 47.0253C17.0262 44.137 17.0957 41.1592 17.7992 38.3007C18.5026 35.4422 19.8229 32.7722 21.6675 30.4779C23.5121 28.1837 25.8363 26.3209 28.4771 25.02C29.2571 24.6525 30.5896 23.9875 32.3621 24.02C33.6109 24.0291 34.8406 24.3273 35.9548 24.8911C37.0691 25.455 38.0377 26.2692 38.7846 27.27C39.7942 28.618 40.3508 30.2511 40.3746 31.935C40.3746 31.8825 46.4896 12.035 20.3746 12.035C9.3996 12.035 0.374596 22.45 0.374596 31.5875C0.331306 36.4211 1.36553 41.2037 3.4021 45.5875C6.73041 52.6889 12.5507 58.3208 19.7578 61.4137C26.9649 64.5066 35.0569 64.8452 42.4971 62.365C39.892 63.1864 37.1397 63.4329 34.4301 63.0876C31.7205 62.7424 29.118 61.8135 26.8021 60.365L26.7796 60.355Z" fill="url(#paint2_linear_306_383)"/>
<path opacity="0.41" d="M26.7796 60.355C24.5498 58.971 22.6173 57.1575 21.0946 55.02C19.3591 52.6422 18.1648 49.9135 17.5955 47.0253C17.0262 44.137 17.0957 41.1592 17.7992 38.3007C18.5026 35.4422 19.8229 32.7722 21.6675 30.4779C23.5121 28.1837 25.8363 26.3209 28.4771 25.02C29.2571 24.6525 30.5896 23.9875 32.3621 24.02C33.6109 24.0291 34.8406 24.3273 35.9548 24.8911C37.0691 25.455 38.0377 26.2692 38.7846 27.27C39.7942 28.618 40.3508 30.2511 40.3746 31.935C40.3746 31.8825 46.4896 12.035 20.3746 12.035C9.3996 12.035 0.374596 22.45 0.374596 31.5875C0.331306 36.4211 1.36553 41.2037 3.4021 45.5875C6.73041 52.6889 12.5507 58.3208 19.7578 61.4137C26.9649 64.5066 35.0569 64.8452 42.4971 62.365C39.892 63.1864 37.1397 63.4329 34.4301 63.0876C31.7205 62.7424 29.118 61.8135 26.8021 60.365L26.7796 60.355Z" fill="url(#paint3_radial_306_383)"/>
<path d="M38.4295 37.215C38.227 37.4775 37.6045 37.84 37.6045 38.63C37.6045 39.2825 38.0295 39.91 38.7845 40.4375C42.3795 42.9375 49.157 42.6075 49.1745 42.6075C51.8384 42.6011 54.4517 41.8802 56.742 40.52C59.0526 39.1709 60.9702 37.2411 62.3046 34.9221C63.6391 32.6031 64.3441 29.9755 64.3495 27.3C64.4146 21.6975 62.3495 17.9725 61.5145 16.3225C56.217 5.96 44.782 1.56661e-07 32.347 1.56661e-07C23.9375 -0.000831393 15.8656 3.30875 9.87725 9.21293C3.88886 15.1171 0.465305 23.1413 0.347046 31.55C0.467046 22.415 9.54705 15.0375 20.347 15.0375C21.222 15.0375 26.212 15.1225 30.847 17.555C34.932 19.7 37.072 22.29 38.5595 24.8575C40.1045 27.525 40.3795 30.895 40.3795 32.2375C40.3795 33.58 39.6945 35.57 38.4295 37.215Z" fill="url(#paint4_radial_306_383)"/>
<path d="M38.4295 37.215C38.227 37.4775 37.6045 37.84 37.6045 38.63C37.6045 39.2825 38.0295 39.91 38.7845 40.4375C42.3795 42.9375 49.157 42.6075 49.1745 42.6075C51.8384 42.6011 54.4517 41.8802 56.742 40.52C59.0526 39.1709 60.9702 37.2411 62.3046 34.9221C63.6391 32.6031 64.3441 29.9755 64.3495 27.3C64.4146 21.6975 62.3495 17.9725 61.5145 16.3225C56.217 5.96 44.782 1.56661e-07 32.347 1.56661e-07C23.9375 -0.000831393 15.8656 3.30875 9.87725 9.21293C3.88886 15.1171 0.465305 23.1413 0.347046 31.55C0.467046 22.415 9.54705 15.0375 20.347 15.0375C21.222 15.0375 26.212 15.1225 30.847 17.555C34.932 19.7 37.072 22.29 38.5595 24.8575C40.1045 27.525 40.3795 30.895 40.3795 32.2375C40.3795 33.58 39.6945 35.57 38.4295 37.215Z" fill="url(#paint5_radial_306_383)"/>
</g>
<defs>
<linearGradient id="paint0_linear_306_383" x1="15.0271" y1="44.2625" x2="59.6121" y2="44.2625" gradientUnits="userSpaceOnUse">
<stop stop-color="#0C59A4"/>
<stop offset="1" stop-color="#114A8B"/>
</linearGradient>
<radialGradient id="paint1_radial_306_383" cx="0" cy="0" r="1" gradientUnits="userSpaceOnUse" gradientTransform="translate(39.6521 44.6139) scale(23.845 22.6527)">
<stop offset="0.72" stop-opacity="0"/>
<stop offset="0.95" stop-opacity="0.53"/>
<stop offset="1"/>
</radialGradient>
<linearGradient id="paint2_linear_306_383" x1="38.5321" y1="24.9225" x2="10.6846" y2="55.255" gradientUnits="userSpaceOnUse">
<stop stop-color="#1B9DE2"/>
<stop offset="0.16" stop-color="#1595DF"/>
<stop offset="0.67" stop-color="#0680D7"/>
<stop offset="1" stop-color="#0078D4"/>
</linearGradient>
<radialGradient id="paint3_radial_306_383" cx="0" cy="0" r="1" gradientUnits="userSpaceOnUse" gradientTransform="translate(17.9957 49.7521) rotate(-81.3844) scale(35.8565 28.9685)">
<stop offset="0.76" stop-opacity="0"/>
<stop offset="0.95" stop-opacity="0.5"/>
<stop offset="1"/>
</radialGradient>
<radialGradient id="paint4_radial_306_383" cx="0" cy="0" r="1" gradientUnits="userSpaceOnUse" gradientTransform="translate(6.81267 11.8442) rotate(92.2906) scale(50.648 107.87)">
<stop stop-color="#35C1F1"/>
<stop offset="0.11" stop-color="#34C1ED"/>
<stop offset="0.23" stop-color="#2FC2DF"/>
<stop offset="0.31" stop-color="#2BC3D2"/>
<stop offset="0.67" stop-color="#36C752"/>
</radialGradient>
<radialGradient id="paint5_radial_306_383" cx="0" cy="0" r="1" gradientUnits="userSpaceOnUse" gradientTransform="translate(60.3651 19.3515) rotate(73.7398) scale(24.335 19.7892)">
<stop stop-color="#66EB6E"/>
<stop offset="1" stop-color="#66EB6E" stop-opacity="0"/>
</radialGradient>
<clipPath id="clip0_306_383">
<rect width="64" height="64" fill="white" transform="translate(0.352051)"/>
</clipPath>
</defs>
</svg>
