<svg width="65" height="64" viewBox="0 0 65 64" fill="none" xmlns="http://www.w3.org/2000/svg">
<path d="M58.3331 21.453C57.1152 18.5148 54.6466 15.3428 52.7088 14.3408C54.2861 17.4403 55.1984 20.5492 55.5472 22.8689C55.5472 22.8689 55.5472 22.8852 55.5531 22.9156C52.3833 14.9955 47.0075 11.8013 42.6175 4.84814C42.3947 4.49738 42.173 4.14663 41.956 3.77132C41.8335 3.55969 41.7343 3.36795 41.648 3.18672C41.4661 2.83515 41.3255 2.46358 41.2292 2.0795C41.23 2.06126 41.2239 2.04339 41.2123 2.02935C41.2007 2.0153 41.1842 2.00609 41.1662 2.0035C41.149 1.99883 41.1309 1.99883 41.1137 2.0035C41.1091 2.00562 41.1047 2.00837 41.1009 2.01169C41.0939 2.01169 41.0869 2.01987 41.0799 2.02221L41.0915 2.00701C34.0486 6.14126 31.6593 13.7889 31.44 17.6157C28.6256 17.8086 25.9346 18.8472 23.7181 20.5959C23.4864 20.3996 23.2442 20.2162 22.9924 20.0464C22.3537 17.8054 22.3267 15.4337 22.9143 13.1786C20.0339 14.4939 17.794 16.5693 16.1653 18.4061H16.1525C15.0407 16.9948 15.1189 12.3403 15.1819 11.3687C15.169 11.3079 14.3536 11.7931 14.2486 11.8668C13.2675 12.5682 12.3504 13.3554 11.5082 14.2192C10.5497 15.1931 9.67398 16.2455 8.89024 17.3655C7.0871 19.9265 5.80833 22.8202 5.12786 25.8795C5.11503 25.9403 5.10336 26.0034 5.09053 26.0654C5.03803 26.3121 4.84787 27.5503 4.81404 27.8192V27.8812C4.56614 29.1605 4.41173 30.4563 4.35205 31.7582V31.902C4.35205 47.4195 16.905 60 32.3885 60C46.2562 60 57.7697 49.9099 60.0248 36.6559C60.0714 36.297 60.1099 35.9345 60.1519 35.5721C60.7096 30.7527 60.0901 25.6878 58.3331 21.453ZM26.0175 43.4478C26.1482 43.5097 26.2718 43.5787 26.406 43.6395L26.4247 43.6512C26.2905 43.5857 26.154 43.5179 26.0187 43.4478H26.0175ZM55.5554 22.9285V22.9016V22.932V22.9285Z" fill="url(#paint0_linear_306_380)"/>
<path d="M58.3331 21.453C57.1151 18.5148 54.6465 15.3428 52.7087 14.3408C54.286 17.4403 55.1983 20.5492 55.5471 22.8689V22.9262C58.1931 30.1143 56.7511 37.4241 54.6745 41.8904C51.4616 48.8003 43.6837 55.8833 31.5076 55.5384C18.3632 55.1642 6.77506 45.3769 4.61096 32.5685C4.21664 30.5469 4.61096 29.5216 4.80929 27.8812C4.5678 29.1451 4.47563 29.511 4.35547 31.7582V31.902C4.35547 47.4195 16.9084 60 32.3919 60C46.2596 60 57.7731 49.9099 60.0282 36.656C60.0748 36.297 60.1133 35.9346 60.1553 35.5721C60.7095 30.7527 60.09 25.6878 58.3331 21.453Z" fill="url(#paint1_radial_306_380)"/>
<path d="M58.3331 21.453C57.1151 18.5148 54.6465 15.3428 52.7087 14.3408C54.286 17.4403 55.1983 20.5492 55.5471 22.8689V22.9262C58.1931 30.1143 56.7511 37.4241 54.6745 41.8904C51.4616 48.8003 43.6837 55.8833 31.5076 55.5384C18.3632 55.1642 6.77506 45.3769 4.61096 32.5685C4.21664 30.5469 4.61096 29.5216 4.80929 27.8812C4.5678 29.1451 4.47563 29.511 4.35547 31.7582V31.902C4.35547 47.4195 16.9084 60 32.3919 60C46.2596 60 57.7731 49.9099 60.0282 36.656C60.0748 36.297 60.1133 35.9346 60.1553 35.5721C60.7095 30.7527 60.09 25.6878 58.3331 21.453Z" fill="url(#paint2_radial_306_380)"/>
<path d="M44.7082 24.7548C44.77 24.7981 44.8249 24.8413 44.8832 24.8846C44.1796 23.6325 43.3029 22.4863 42.2793 21.4799C33.5646 12.7461 39.995 2.5414 41.0788 2.02228L41.0905 2.00708C34.0475 6.14133 31.6583 13.789 31.439 17.6158C31.7656 17.5935 32.0911 17.5655 32.4236 17.5655C37.6793 17.5655 42.2571 20.4627 44.7082 24.7548Z" fill="url(#paint3_radial_306_380)"/>
<path d="M32.4411 26.4993C32.3956 27.2008 29.9317 29.6094 29.0695 29.6094C21.0968 29.6094 19.803 34.4428 19.803 34.4428C20.153 38.5139 22.9832 41.866 26.4073 43.6396C26.5636 43.7203 26.7211 43.7928 26.8739 43.8653C27.1481 43.9822 27.4234 44.0991 27.6976 44.2032C28.8718 44.6183 30.1015 44.8547 31.3456 44.9047C45.3195 45.5618 48.0284 28.1596 37.9429 23.1063C40.5246 22.6562 43.2056 23.6979 44.7023 24.7514C42.2524 20.4593 37.6734 17.562 32.4177 17.562C32.0852 17.562 31.7598 17.5901 31.4331 17.6123C28.6208 17.8076 25.9323 18.8474 23.7182 20.5961C24.1463 20.9597 24.6293 21.4437 25.6455 22.4469C27.5517 24.3316 32.4306 26.2713 32.4411 26.4993Z" fill="url(#paint4_radial_306_380)"/>
<path d="M32.4411 26.4993C32.3956 27.2008 29.9317 29.6094 29.0695 29.6094C21.0968 29.6094 19.803 34.4428 19.803 34.4428C20.153 38.5139 22.9832 41.866 26.4073 43.6396C26.5636 43.7203 26.7211 43.7928 26.8739 43.8653C27.1481 43.9822 27.4234 44.0991 27.6976 44.2032C28.8718 44.6183 30.1015 44.8547 31.3456 44.9047C45.3195 45.5618 48.0284 28.1596 37.9429 23.1063C40.5246 22.6562 43.2056 23.6979 44.7023 24.7514C42.2524 20.4593 37.6734 17.562 32.4177 17.562C32.0852 17.562 31.7598 17.5901 31.4331 17.6123C28.6208 17.8076 25.9323 18.8474 23.7182 20.5961C24.1463 20.9597 24.6293 21.4437 25.6455 22.4469C27.5517 24.3316 32.4306 26.2713 32.4411 26.4993Z" fill="url(#paint5_radial_306_380)"/>
<path d="M22.4149 19.6619C22.6424 19.8092 22.8291 19.9331 22.9983 20.0465C22.3595 17.8055 22.3325 15.4338 22.9201 13.1787C20.0397 14.494 17.7998 16.5694 16.1711 18.4062C16.303 18.4026 20.3698 18.329 22.4149 19.6619Z" fill="url(#paint6_radial_306_380)"/>
<path d="M4.6117 32.5685C6.77579 45.3769 18.3639 55.1642 31.5177 55.5383C43.6938 55.8833 51.467 48.8003 54.6846 41.8904C56.7612 37.4229 58.2031 30.1143 55.5572 22.9262V22.8724C55.5572 22.8794 55.5572 22.8887 55.563 22.9191C56.557 29.428 53.2543 35.7334 48.0908 39.9975C48.0855 40.0094 48.0804 40.0215 48.0756 40.0337C38.0134 48.2449 28.3853 44.9876 26.4358 43.6582C26.3005 43.5927 26.164 43.5249 26.0287 43.4548C20.1617 40.6487 17.7386 35.288 18.2578 30.6942C13.3054 30.6942 11.6161 26.5062 11.6161 26.5062C11.6161 26.5062 16.0633 23.3284 21.9245 26.0923C27.3528 28.6528 32.451 26.5074 32.451 26.5062C32.4405 26.2782 27.5616 24.3327 25.6588 22.4538C24.6427 21.4506 24.1597 20.9666 23.7316 20.603C23.4999 20.4066 23.2577 20.2232 23.0059 20.0535C22.8391 19.9365 22.6559 19.8196 22.4226 19.6688C20.3775 18.3359 16.3107 18.4096 16.1765 18.4131H16.1637C15.0519 17.0019 15.13 12.3473 15.193 11.3757C15.1802 11.3149 14.3647 11.8002 14.2597 11.8738C13.2787 12.5752 12.3616 13.3624 11.5193 14.2262C10.5608 15.2001 9.68513 16.2526 8.90139 17.3725C7.09825 19.9335 5.81948 22.8273 5.13901 25.8865C5.11685 25.9403 4.11938 30.3049 4.6117 32.5685Z" fill="url(#paint7_radial_306_380)"/>
<path d="M42.2791 21.4799C43.3027 22.4862 44.1793 23.6324 44.883 24.8845C45.0288 24.9943 45.169 25.1114 45.303 25.2353C51.6588 31.0999 48.3339 39.4024 48.0807 39.9986C53.2442 35.7346 56.5469 29.4292 55.553 22.9203C52.3832 14.9955 47.0074 11.8013 42.6174 4.84814C42.3946 4.49738 42.1729 4.14663 41.9559 3.77132C41.8334 3.55969 41.7343 3.36795 41.6479 3.18672C41.466 2.83515 41.3255 2.46358 41.2291 2.0795C41.2299 2.06126 41.2238 2.04339 41.2122 2.02935C41.2006 2.0153 41.1841 2.00609 41.1661 2.0035C41.1489 1.99883 41.1308 1.99883 41.1136 2.0035C41.109 2.00562 41.1047 2.00837 41.1008 2.01169C41.0938 2.01169 41.0868 2.01987 41.0798 2.02221C39.9948 2.54133 33.5644 12.746 42.2791 21.4799Z" fill="url(#paint8_radial_306_380)"/>
<path d="M45.3007 25.2295C45.1667 25.1056 45.0265 24.9885 44.8807 24.8787C44.8235 24.8355 44.764 24.7922 44.7057 24.749C43.2089 23.6967 40.528 22.6538 37.9463 23.1039C48.0306 28.1571 45.3228 45.5593 31.349 44.9023C30.1048 44.8523 28.8752 44.6158 27.7009 44.2008C27.4268 44.0979 27.1515 43.9844 26.8773 43.8629C26.7186 43.7904 26.5611 43.7179 26.4106 43.6372L26.4293 43.6489C28.3787 44.9818 38.0069 48.2391 48.0691 40.0244C48.0691 40.0244 48.0749 40.0092 48.0842 39.9882C48.3339 39.4024 51.6588 31.1 45.3007 25.2295Z" fill="url(#paint9_radial_306_380)"/>
<path d="M19.8027 34.4428C19.8027 34.4428 21.0965 29.6093 29.0692 29.6093C29.9314 29.6093 32.3953 27.1985 32.4408 26.4993C32.4863 25.8001 27.3426 28.6459 21.9143 26.0854C16.0531 23.3214 11.606 26.4993 11.606 26.4993C11.606 26.4993 13.2952 30.6873 18.2476 30.6873C17.7284 35.2811 20.1515 40.6371 26.0185 43.4479C26.1492 43.5098 26.2728 43.5788 26.407 43.6396C22.9829 41.8695 20.1562 38.5139 19.8027 34.4428Z" fill="url(#paint10_radial_306_380)"/>
<path d="M58.3331 21.453C57.1152 18.5148 54.6466 15.3428 52.7088 14.3408C54.2861 17.4403 55.1984 20.5492 55.5472 22.8689C55.5472 22.8689 55.5472 22.8852 55.5531 22.9156C52.3833 14.9955 47.0075 11.8013 42.6175 4.84814C42.3947 4.49738 42.173 4.14663 41.956 3.77132C41.8335 3.55969 41.7343 3.36795 41.648 3.18672C41.4661 2.83515 41.3255 2.46358 41.2292 2.0795C41.23 2.06126 41.2239 2.04339 41.2123 2.02935C41.2007 2.0153 41.1842 2.00609 41.1662 2.0035C41.149 1.99883 41.1309 1.99883 41.1137 2.0035C41.1091 2.00562 41.1047 2.00837 41.1009 2.01169C41.0939 2.01169 41.0869 2.01987 41.0799 2.02221L41.0915 2.00701C34.0486 6.14126 31.6593 13.7889 31.44 17.6157C31.7667 17.5935 32.0922 17.5654 32.4246 17.5654C37.6803 17.5654 42.2582 20.4627 44.7092 24.7548C43.2125 23.7025 40.5316 22.6596 37.9498 23.1097C48.0341 28.1629 45.3264 45.5652 31.3525 44.9081C30.1084 44.8581 28.8787 44.6216 27.7045 44.2066C27.4303 44.1037 27.155 43.9903 26.8808 43.8687C26.7222 43.7962 26.5647 43.7237 26.4142 43.643L26.4328 43.6547C26.2975 43.5892 26.161 43.5214 26.0257 43.4513C26.1563 43.5132 26.28 43.5822 26.4142 43.643C22.9831 41.8693 20.1564 38.5138 19.8029 34.4427C19.8029 34.4427 21.0967 29.6092 29.0694 29.6092C29.9316 29.6092 32.3955 27.1984 32.441 26.4992C32.4305 26.2712 27.5516 24.3257 25.6489 22.4468C24.6327 21.4436 24.1497 20.9596 23.7216 20.5959C23.4899 20.3996 23.2477 20.2162 22.9959 20.0464C22.3572 17.8054 22.3302 15.4337 22.9178 13.1786C20.0374 14.4939 17.7975 16.5693 16.1688 18.4061H16.156C15.0442 16.9948 15.1224 12.3403 15.1854 11.3687C15.1725 11.3079 14.3571 11.7931 14.2521 11.8668C13.271 12.5682 12.3539 13.3554 11.5117 14.2192C10.5532 15.1931 9.67748 16.2455 8.89374 17.3655C7.0906 19.9265 5.81183 22.8202 5.13136 25.8795C5.11853 25.9403 5.10686 26.0034 5.09403 26.0654C5.04153 26.3121 4.80354 27.5678 4.77087 27.8367C4.77087 27.8578 4.77087 27.8169 4.77087 27.8367C4.55243 29.1342 4.41257 30.4438 4.35205 31.7582V31.902C4.35205 47.4195 16.905 60 32.3885 60C46.2562 60 57.7697 49.9099 60.0248 36.6559C60.0714 36.297 60.1099 35.9345 60.1519 35.5721C60.7096 30.7527 60.0901 25.6878 58.3331 21.453ZM55.5519 22.8957V22.9261V22.8957Z" fill="url(#paint11_linear_306_380)"/>
<defs>
<linearGradient id="paint0_linear_306_380" x1="54.6221" y1="10.9852" x2="7.9799" y2="55.8875" gradientUnits="userSpaceOnUse">
<stop offset="0.05" stop-color="#FFF44F"/>
<stop offset="0.11" stop-color="#FFE847"/>
<stop offset="0.22" stop-color="#FFC830"/>
<stop offset="0.37" stop-color="#FF980E"/>
<stop offset="0.4" stop-color="#FF8B16"/>
<stop offset="0.46" stop-color="#FF672A"/>
<stop offset="0.53" stop-color="#FF3647"/>
<stop offset="0.7" stop-color="#E31587"/>
</linearGradient>
<radialGradient id="paint1_radial_306_380" cx="0" cy="0" r="1" gradientUnits="userSpaceOnUse" gradientTransform="translate(52.4707 8.43759) scale(58.4493 58.5775)">
<stop offset="0.13" stop-color="#FFBD4F"/>
<stop offset="0.19" stop-color="#FFAC31"/>
<stop offset="0.25" stop-color="#FF9D17"/>
<stop offset="0.28" stop-color="#FF980E"/>
<stop offset="0.4" stop-color="#FF563B"/>
<stop offset="0.47" stop-color="#FF3750"/>
<stop offset="0.71" stop-color="#F5156C"/>
<stop offset="0.78" stop-color="#EB0878"/>
<stop offset="0.86" stop-color="#E50080"/>
</radialGradient>
<radialGradient id="paint2_radial_306_380" cx="0" cy="0" r="1" gradientUnits="userSpaceOnUse" gradientTransform="translate(31.1133 32.3849) scale(58.4493 58.5775)">
<stop offset="0.3" stop-color="#960E18"/>
<stop offset="0.35" stop-color="#B11927" stop-opacity="0.74"/>
<stop offset="0.43" stop-color="#DB293D" stop-opacity="0.34"/>
<stop offset="0.5" stop-color="#F5334B" stop-opacity="0.09"/>
<stop offset="0.53" stop-color="#FF3750" stop-opacity="0"/>
</radialGradient>
<radialGradient id="paint3_radial_306_380" cx="0" cy="0" r="1" gradientUnits="userSpaceOnUse" gradientTransform="translate(38.1611 -4.85606) scale(42.344 42.4369)">
<stop offset="0.13" stop-color="#FFF44F"/>
<stop offset="0.25" stop-color="#FFDC3E"/>
<stop offset="0.51" stop-color="#FF9D12"/>
<stop offset="0.53" stop-color="#FF980E"/>
</radialGradient>
<radialGradient id="paint4_radial_306_380" cx="0" cy="0" r="1" gradientUnits="userSpaceOnUse" gradientTransform="translate(24.6492 47.6862) scale(27.8299 27.891)">
<stop offset="0.35" stop-color="#3A8EE6"/>
<stop offset="0.47" stop-color="#5C79F0"/>
<stop offset="0.67" stop-color="#9059FF"/>
<stop offset="1" stop-color="#C139E6"/>
</radialGradient>
<radialGradient id="paint5_radial_306_380" cx="0" cy="0" r="1" gradientUnits="userSpaceOnUse" gradientTransform="translate(31.9529 25.4233) rotate(-13.9265) scale(14.7463 17.357)">
<stop offset="0.21" stop-color="#9059FF" stop-opacity="0"/>
<stop offset="0.28" stop-color="#8C4FF3" stop-opacity="0.06"/>
<stop offset="0.75" stop-color="#7716A8" stop-opacity="0.45"/>
<stop offset="0.97" stop-color="#6E008B" stop-opacity="0.6"/>
</radialGradient>
<radialGradient id="paint6_radial_306_380" cx="0" cy="0" r="1" gradientUnits="userSpaceOnUse" gradientTransform="translate(30.3749 6.04081) scale(20.0217 20.0656)">
<stop stop-color="#FFE226"/>
<stop offset="0.12" stop-color="#FFDB27"/>
<stop offset="0.3" stop-color="#FFC82A"/>
<stop offset="0.5" stop-color="#FFA930"/>
<stop offset="0.73" stop-color="#FF7E37"/>
<stop offset="0.79" stop-color="#FF7139"/>
</radialGradient>
<radialGradient id="paint7_radial_306_380" cx="0" cy="0" r="1" gradientUnits="userSpaceOnUse" gradientTransform="translate(46.1133 -6.68589) scale(85.4217 85.6092)">
<stop offset="0.11" stop-color="#FFF44F"/>
<stop offset="0.46" stop-color="#FF980E"/>
<stop offset="0.62" stop-color="#FF5634"/>
<stop offset="0.72" stop-color="#FF3647"/>
<stop offset="0.9" stop-color="#E31587"/>
</radialGradient>
<radialGradient id="paint8_radial_306_380" cx="0" cy="0" r="1" gradientUnits="userSpaceOnUse" gradientTransform="translate(37.8556 2.66749) rotate(84.2447) scale(62.3992 40.9086)">
<stop stop-color="#FFF44F"/>
<stop offset="0.06" stop-color="#FFE847"/>
<stop offset="0.17" stop-color="#FFC830"/>
<stop offset="0.3" stop-color="#FF980E"/>
<stop offset="0.36" stop-color="#FF8B16"/>
<stop offset="0.45" stop-color="#FF672A"/>
<stop offset="0.57" stop-color="#FF3647"/>
<stop offset="0.74" stop-color="#E31587"/>
</radialGradient>
<radialGradient id="paint9_radial_306_380" cx="0" cy="0" r="1" gradientUnits="userSpaceOnUse" gradientTransform="translate(29.9035 13.4721) scale(53.3289 53.446)">
<stop offset="0.14" stop-color="#FFF44F"/>
<stop offset="0.48" stop-color="#FF980E"/>
<stop offset="0.59" stop-color="#FF5634"/>
<stop offset="0.66" stop-color="#FF3647"/>
<stop offset="0.9" stop-color="#E31587"/>
</radialGradient>
<radialGradient id="paint10_radial_306_380" cx="0" cy="0" r="1" gradientUnits="userSpaceOnUse" gradientTransform="translate(43.9811 16.6009) scale(58.3688 58.4968)">
<stop offset="0.09" stop-color="#FFF44F"/>
<stop offset="0.23" stop-color="#FFE141"/>
<stop offset="0.51" stop-color="#FFAF1E"/>
<stop offset="0.63" stop-color="#FF980E"/>
</radialGradient>
<linearGradient id="paint11_linear_306_380" x1="54.0621" y1="10.7444" x2="14.3729" y2="50.3478" gradientUnits="userSpaceOnUse">
<stop offset="0.17" stop-color="#FFF44F" stop-opacity="0.8"/>
<stop offset="0.27" stop-color="#FFF44F" stop-opacity="0.63"/>
<stop offset="0.49" stop-color="#FFF44F" stop-opacity="0.22"/>
<stop offset="0.6" stop-color="#FFF44F" stop-opacity="0"/>
</linearGradient>
</defs>
</svg>
