<svg width="65" height="64" viewBox="0 0 65 64" fill="none" xmlns="http://www.w3.org/2000/svg">
<rect x="4.0282" y="4" width="56.3944" height="56" fill="#FFCA28"/>
<path d="M38.2676 50.5753L42.4197 47.8471C42.745 48.8623 44.8056 51.2732 47.4084 51.2732C50.0112 51.2732 51.2197 49.8615 51.2197 48.9257C51.2197 46.3753 48.5619 45.4761 47.2854 45.0442C47.0773 44.9738 46.9059 44.9158 46.7887 44.8651C46.7286 44.8391 46.6377 44.8046 46.521 44.7604C45.1013 44.2217 39.8633 42.2345 39.8633 36.4743C39.8633 30.1296 46.0295 29.4 47.4239 29.4C48.3361 29.4 52.7225 29.511 54.907 33.5875L50.8788 36.3791C49.9957 34.6026 48.5285 34.0157 47.6253 34.0157C45.3943 34.0157 44.9295 35.6399 44.9295 36.3791C44.9295 38.4536 47.3534 39.3833 49.4001 40.1684C49.9355 40.3738 50.4452 40.5693 50.8788 40.7728C53.1098 41.8197 56.3943 43.5327 56.3943 48.9257C56.3943 51.6269 54.1127 56 48.369 56C40.6535 56 38.6084 51.4001 38.2676 50.5753Z" fill="#3E3E3E"/>
<path d="M18.1267 51.1171L22.4543 48.3903C22.7934 49.4049 24.1111 51.2756 26.023 51.2756C27.9349 51.2756 28.9134 49.3256 28.9134 48.3903V30H34.2358V48.3903C34.3219 50.9268 32.9052 56 26.6528 56C20.9041 56 18.5143 52.6073 18.1267 51.1171Z" fill="#3E3E3E"/>
</svg>
