<svg width="66" height="64" viewBox="0 0 66 64" fill="none" xmlns="http://www.w3.org/2000/svg">
<g clip-path="url(#clip0_306_238)">
<path d="M30.3333 30.2826C30.3273 30.1489 30.3273 30.0151 30.3273 29.8814C30.3273 21.839 30.3273 13.7965 30.3333 5.75413C30.3333 5.53897 30.3035 5.32381 30.3779 5.08538C32.509 4.7103 65.282 0.0029076 65.7851 0C65.797 0.127934 65.8148 0.258776 65.8208 0.389618C65.8833 6.53046 65.8505 29.8901 65.7612 30.4454C65.6749 30.4542 65.5767 30.4745 65.4755 30.4774C64.8802 30.4803 64.285 30.4803 63.6778 30.4832C52.802 30.5268 41.9174 30.5705 31.0387 30.6112C30.8214 30.6112 30.6041 30.6344 30.3571 30.5792C30.3511 30.4745 30.3363 30.3756 30.3333 30.2826ZM65.7464 33.8066C65.5737 33.7223 65.3892 33.7543 65.2017 33.7543C62.8235 33.7368 60.4514 33.7165 58.0762 33.7078C51.7782 33.6845 45.4771 33.6641 39.1672 33.6409C36.417 33.6351 33.6698 33.6118 30.9196 33.6002C30.7351 33.6002 30.5446 33.5595 30.3601 33.6525C30.2916 33.8444 30.3154 34.0508 30.3154 34.2428C30.3095 42.352 30.3095 50.4613 30.3095 58.5706C30.3095 58.6665 30.3065 58.7683 30.3154 58.873C30.3214 58.9631 30.3482 59.0591 30.366 59.1783C42.1257 60.7862 53.8676 62.3941 65.6124 63.9991C65.66 64.0049 65.7077 63.9816 65.7702 63.97C65.7821 63.9031 65.8029 63.8392 65.8029 63.7752C65.8029 53.8167 65.797 43.8553 65.791 33.8967C65.8029 33.8735 65.7702 33.8444 65.7464 33.8066ZM27.0027 33.5944C18.2253 33.5566 9.45391 33.5246 0.67356 33.4897C0.625938 33.4897 0.581292 33.5129 0.509858 33.5362C0.492 33.6118 0.474142 33.6961 0.468189 33.7746C0.411638 35.1325 0.450331 54.6105 0.521764 55.0931C9.33783 56.3027 18.139 57.5064 26.9402 58.7102C27.0027 58.7218 27.0712 58.7043 27.1337 58.6985C27.1575 58.6375 27.1843 58.5968 27.1843 58.5473C27.1902 50.2927 27.1902 42.0351 27.1902 33.7775C27.1902 33.7281 27.1604 33.6874 27.1485 33.6292C27.095 33.6176 27.0503 33.5944 27.0027 33.5944ZM27.0503 5.56514C18.4069 6.80377 9.76048 8.04822 1.12002 9.29268C0.9206 9.31884 0.721182 9.36536 0.503906 9.40607C0.497953 9.55436 0.474142 9.68229 0.474142 9.81313C0.408661 14.7997 0.441402 30.1867 0.536646 30.7449C0.742017 30.7478 0.932506 30.7536 1.11407 30.7536C9.36164 30.7187 17.6122 30.6868 25.8568 30.6519C26.1812 30.6519 26.5116 30.6519 26.8301 30.6431C26.9402 30.6402 27.0533 30.6053 27.1902 30.5821C27.1902 22.2983 27.1902 14.0437 27.1902 5.78611C27.1902 5.72215 27.1664 5.65818 27.1545 5.60294C27.1128 5.58549 27.0771 5.55932 27.0503 5.56514Z" fill="black"/>
</g>
<defs>
<clipPath id="clip0_306_238">
<rect width="64.4507" height="64" fill="white" transform="translate(0.901367)"/>
</clipPath>
</defs>
</svg>
