<svg width="65" height="64" viewBox="0 0 65 64" fill="none" xmlns="http://www.w3.org/2000/svg">
<path fill-rule="evenodd" clip-rule="evenodd" d="M11.9631 58.4356L5.03597 49.8663C3.36931 47.8045 2.46472 45.2692 2.46472 42.6597V11.63C2.46472 7.72128 5.61392 4.47794 9.67658 4.2025L41.8041 2.02437C44.1381 1.86612 46.458 2.48218 48.3753 3.76941L59.6632 11.3478C61.6838 12.7044 62.8873 14.922 62.8873 17.2885V52.5663C62.8873 56.3915 59.7907 59.5586 55.813 59.8017L20.1551 61.9813C16.9809 62.1754 13.9128 60.8474 11.9631 58.4356Z" fill="white"/>
<path d="M23.1054 27.1574V26.7512C23.1054 25.7214 23.9359 24.8673 25.0064 24.7964L32.8036 24.2794L43.5865 40.047V26.2083L40.811 25.8409V25.6479C40.811 24.6061 41.6606 23.7464 42.7447 23.6912L49.8393 23.3303V24.3442C49.8393 24.8201 49.4829 25.2272 48.9944 25.3092L47.2872 25.596V48.0074L45.1445 48.7391C43.3544 49.3504 41.3616 48.696 40.3369 47.1605L29.8686 31.4744V46.4459L33.0907 47.0583L33.0458 47.355C32.9052 48.2847 32.097 48.9877 31.1192 49.0309L23.1054 49.3851C22.9994 48.3855 23.7539 47.4911 24.7948 47.3825L25.849 47.2726V27.3105L23.1054 27.1574Z" fill="black"/>
<path fill-rule="evenodd" clip-rule="evenodd" d="M42.0917 5.93356L9.96424 8.1117C8.03982 8.24217 6.5481 9.77849 6.5481 11.63V42.6598C6.5481 44.3994 7.15115 46.0896 8.26226 47.4641L15.1894 56.0334C16.3094 57.4189 18.072 58.1818 19.8955 58.0703L55.5534 55.8907C57.381 55.779 58.8037 54.3239 58.8037 52.5663V17.2885C58.8037 16.2012 58.2507 15.1823 57.3224 14.559L46.0345 6.98059C44.8841 6.20825 43.4922 5.83862 42.0917 5.93356ZM11.5574 12.114C11.1105 11.7855 11.3232 11.1011 11.8845 11.0611L42.3079 8.89422C43.2772 8.82518 44.2404 9.09024 45.0243 9.64176L51.1285 13.9363C51.3603 14.0993 51.2516 14.4513 50.9647 14.4668L18.7465 16.2067C17.7714 16.2594 16.809 15.9749 16.0338 15.405L11.5574 12.114ZM17.2353 21.6614C17.2353 20.6221 18.0809 19.7635 19.1622 19.7051L53.2259 17.8629C54.2797 17.8059 55.1669 18.6107 55.1669 19.6236V50.1705C55.1669 51.208 54.3243 52.0656 53.2451 52.1266L19.397 54.0391C18.2243 54.1053 17.2353 53.2104 17.2353 52.083V21.6614Z" fill="black"/>
</svg>
