<svg width="65" height="64" viewBox="0 0 65 64" fill="none" xmlns="http://www.w3.org/2000/svg">
<path d="M37.6208 31.9518C37.6208 29.0829 35.2053 26.7571 32.2253 26.7571C29.2456 26.7571 26.8298 29.0829 26.8298 31.9518C26.8298 34.8209 29.2456 37.1468 32.2253 37.1468C35.2053 37.1468 37.6208 34.8209 37.6208 31.9518Z" fill="#53C1DE"/>
<path fill-rule="evenodd" clip-rule="evenodd" d="M49.7486 22.3074C50.8881 17.8496 52.3203 9.58296 47.2713 6.78032C42.246 3.98989 35.7065 9.33685 32.2534 12.5464C28.8103 9.36884 22.0871 4.04473 17.0424 6.85627C12.019 9.65605 13.5681 17.7856 14.7328 22.2714C10.0468 23.5528 2.01404 26.3128 2.01404 31.9518C2.01404 37.5748 10.0385 40.5776 14.6967 41.8578C13.5277 46.3684 12.0562 54.3819 17.086 57.1753C22.1494 59.9863 28.8518 54.789 32.3368 51.5444C35.8121 54.7728 42.2889 60.0041 47.3152 57.2029C52.3574 54.3926 51.0441 46.2368 49.8793 41.7249C54.3949 40.442 62.4366 37.5046 62.4366 31.9518C62.4366 26.3669 54.3608 23.5846 49.7486 22.3074ZM49.1763 39.3339C48.4115 37.0032 47.3793 34.5246 46.1166 31.9642C47.3218 29.4642 48.3139 27.0176 49.0573 24.7018C52.4384 25.6455 59.8555 27.8026 59.8555 31.9518C59.8555 36.1399 52.738 38.3174 49.1763 39.3339ZM46.0217 55.052C42.2717 57.142 36.7009 52.1393 34.1343 49.7618C35.8369 47.9688 37.5384 45.8844 39.1991 43.5699C42.1202 43.3204 44.8799 42.9123 47.3826 42.3555C48.2023 45.5468 49.7886 52.9525 46.0217 55.052ZM18.3757 55.0222C14.6251 52.94 16.3394 45.7893 17.1994 42.4667C19.6742 42.9937 22.4138 43.3729 25.3419 43.6016C27.0135 45.8664 28.7642 47.9482 30.5286 49.7713C28.3487 51.8015 22.1438 57.114 18.3757 55.0222ZM4.59506 31.9518C4.59506 27.7479 11.9678 25.6066 15.4259 24.6652C16.1821 27.0331 17.174 29.5088 18.3709 32.0123C17.1584 34.5532 16.1525 37.0683 15.3893 39.4639C12.0919 38.5553 4.59506 36.1583 4.59506 31.9518ZM18.3356 9.00708C22.1015 6.90833 27.9448 12.0197 30.4446 14.3203C28.6894 16.1351 26.9547 18.2012 25.2976 20.4529C22.4558 20.7065 19.7355 21.1138 17.2347 21.6594C16.2964 18.0414 14.5737 11.1036 18.3356 9.00708ZM41.0455 23.1542C42.9735 23.3885 44.8205 23.7 46.5549 24.0813C46.0343 25.6881 45.3853 27.3683 44.621 29.0907C43.513 27.0665 42.3237 25.0832 41.0455 23.1542ZM32.2542 16.0962C33.4447 17.3379 34.6371 18.7246 35.8099 20.2289C33.4308 20.1207 31.0477 20.1202 28.6685 20.2274C29.8424 18.737 31.045 17.3524 32.2542 16.0962ZM19.8518 29.0889C19.1001 27.3724 18.457 25.6847 17.9318 24.055C19.6558 23.6835 21.4942 23.38 23.4097 23.1496C22.1279 25.0743 20.9406 27.057 19.8518 29.0889ZM23.4647 40.9315C21.4859 40.7188 19.6197 40.4307 17.8962 40.0695C18.4297 38.4109 19.087 36.687 19.8547 34.9337C20.9586 36.9866 22.1639 38.9885 23.4647 40.9315ZM32.3256 47.983C31.1022 46.7119 29.882 45.3062 28.6902 43.7941C31.083 43.8847 33.4804 43.8848 35.8728 43.782C34.6962 45.3216 33.5081 46.7294 32.3256 47.983ZM44.6456 34.8444C45.4532 36.6167 46.134 38.3314 46.6747 39.9619C44.9227 40.3468 43.0313 40.6567 41.0383 40.8869C42.326 38.9215 43.5341 36.9072 44.6456 34.8444ZM37.7585 41.1881C34.0987 41.4399 30.4158 41.4372 26.7547 41.2087C24.6743 38.2829 22.8224 35.2059 21.2239 32.0115C22.8146 28.8238 24.6531 25.7529 26.7236 22.8316C30.3875 22.5649 34.0739 22.5643 37.7377 22.8331C39.7903 25.7542 41.6261 28.8172 43.2538 31.9763C41.6453 35.1625 39.7973 38.2396 37.7585 41.1881ZM45.9821 8.93319C49.7491 11.0251 48.0723 18.4545 47.2494 21.6851C44.7427 21.1282 42.0205 20.7137 39.1704 20.4563C37.5101 18.1801 35.7899 16.1104 34.0629 14.319C36.5949 11.9688 42.2516 6.86178 45.9821 8.93319Z" fill="#53C1DE"/>
</svg>
