<svg width="66" height="64" viewBox="0 0 66 64" fill="none" xmlns="http://www.w3.org/2000/svg">
<path d="M61.3239 32C61.3239 47.456 48.7057 60 33.1267 60C17.5478 60 4.92957 47.456 4.92957 32C4.92957 16.53 17.5478 4.00003 33.1267 4.00003C48.7057 4.00003 61.3239 16.53 61.3239 32Z" fill="#E95420"/>
<path d="M14.6405 28.3125C12.6069 28.3125 10.9718 29.9729 10.9718 32.0069C10.9718 34.0409 12.6207 35.7013 14.6405 35.7013C16.6604 35.7013 18.3093 34.0409 18.3093 32.0069C18.3093 29.9591 16.6604 28.3125 14.6405 28.3125ZM40.8439 45.0964C39.0851 46.1204 38.4942 48.3757 39.4973 50.1468C40.5141 51.9179 42.7538 52.5267 44.5126 51.5028C46.2714 50.4789 46.8623 48.2235 45.8592 46.4524C44.8287 44.6952 42.589 44.0864 40.8439 45.0964ZM22.6101 32.0069C22.6101 28.354 24.4101 25.1301 27.172 23.1791L24.4926 18.6545C21.2773 20.813 18.9001 24.12 17.8971 27.9804C19.0513 28.9352 19.7933 30.388 19.7933 32.0069C19.7933 33.6258 19.0513 35.0787 17.8971 36.0334C18.8864 39.8938 21.2773 43.2008 24.4926 45.3593L27.172 40.8347C24.4101 38.8838 22.6101 35.6598 22.6101 32.0069ZM33.3278 21.2143C38.9339 21.2143 43.5233 25.5313 44.0042 31.0522L49.2394 30.9692C48.9783 26.9012 47.2195 23.2483 44.4989 20.564C43.0974 21.0898 41.4897 21.0067 40.1019 20.2042C38.7004 19.3879 37.8347 18.0319 37.5874 16.5375C36.227 16.1639 34.798 15.9563 33.3278 15.9563C30.7858 15.9563 28.3949 16.5513 26.2651 17.6168L28.8209 22.2105C30.1812 21.574 31.7201 21.2143 33.3278 21.2143ZM33.3278 42.7995C31.7201 42.7995 30.1812 42.4398 28.8071 41.8033L26.2514 46.3971C28.3812 47.4625 30.7858 48.0575 33.314 48.0575C34.7843 48.0575 36.2133 47.8499 37.5736 47.4764C37.8072 45.9958 38.6866 44.626 40.0882 43.8096C41.476 42.9933 43.0974 42.9241 44.4852 43.4499C47.1921 40.7656 48.9646 37.1127 49.2257 33.0447L43.9905 32.9617C43.5233 38.4687 38.9339 42.7995 33.3278 42.7995ZM40.8302 18.9036C42.589 19.9275 44.8287 19.3187 45.8455 17.5476C46.8623 15.7765 46.2577 13.5211 44.4989 12.4972C42.7401 11.4733 40.5004 12.0821 39.4836 13.8532C38.4805 15.6243 39.0851 17.8797 40.8302 18.9036Z" fill="white"/>
</svg>
