<svg width="66" height="64" viewBox="0 0 66 64" fill="none" xmlns="http://www.w3.org/2000/svg">
<path d="M38.5927 31.9518C38.5927 29.0829 36.1772 26.7571 33.1972 26.7571C30.2175 26.7571 27.8017 29.0829 27.8017 31.9518C27.8017 34.8209 30.2175 37.1468 33.1972 37.1468C36.1772 37.1468 38.5927 34.8209 38.5927 31.9518Z" fill="#53C1DE"/>
<path fill-rule="evenodd" clip-rule="evenodd" d="M50.7205 22.3074C51.86 17.8496 53.2922 9.58296 48.2432 6.78032C43.218 3.98989 36.6785 9.33685 33.2253 12.5464C29.7822 9.36884 23.059 4.04473 18.0143 6.85627C12.9909 9.65605 14.54 17.7856 15.7047 22.2714C11.0188 23.5528 2.98596 26.3128 2.98596 31.9518C2.98596 37.5748 11.0104 40.5776 15.6686 41.8578C14.4996 46.3684 13.0281 54.3819 18.0579 57.1753C23.1213 59.9863 29.8237 54.789 33.3087 51.5444C36.784 54.7728 43.2608 60.0041 48.2871 57.2029C53.3293 54.3926 52.016 46.2368 50.8513 41.7249C55.3668 40.442 63.4085 37.5046 63.4085 31.9518C63.4085 26.3669 55.3327 23.5846 50.7205 22.3074ZM50.1483 39.3339C49.3835 37.0032 48.3513 34.5246 47.0886 31.9642C48.2938 29.4642 49.2859 27.0176 50.0293 24.7018C53.4103 25.6455 60.8275 27.8026 60.8275 31.9518C60.8275 36.1399 53.71 38.3174 50.1483 39.3339ZM46.9936 55.052C43.2436 57.142 37.6728 52.1393 35.1063 49.7618C36.8088 47.9688 38.5104 45.8844 40.171 43.5699C43.0921 43.3204 45.8518 42.9123 48.3545 42.3555C49.1742 45.5468 50.7605 52.9525 46.9936 55.052ZM19.3476 55.0222C15.597 52.94 17.3113 45.7893 18.1713 42.4667C20.6462 42.9937 23.3858 43.3729 26.3139 43.6016C27.9854 45.8664 29.7362 47.9482 31.5005 49.7713C29.3206 51.8015 23.1158 57.114 19.3476 55.0222ZM5.56699 31.9518C5.56699 27.7479 12.9397 25.6066 16.3978 24.6652C17.1541 27.0331 18.1459 29.5088 19.3428 32.0123C18.1304 34.5532 17.1244 37.0683 16.3612 39.4639C13.0638 38.5553 5.56699 36.1583 5.56699 31.9518ZM19.3075 9.00708C23.0734 6.90833 28.9167 12.0197 31.4166 14.3203C29.6613 16.1351 27.9266 18.2012 26.2695 20.4529C23.4277 20.7065 20.7074 21.1138 18.2066 21.6594C17.2683 18.0414 15.5456 11.1036 19.3075 9.00708ZM42.0174 23.1542C43.9454 23.3885 45.7924 23.7 47.5268 24.0813C47.0062 25.6881 46.3572 27.3683 45.593 29.0907C44.485 27.0665 43.2956 25.0832 42.0174 23.1542ZM33.2261 16.0962C34.4166 17.3379 35.609 18.7246 36.7818 20.2289C34.4027 20.1207 32.0196 20.1202 29.6404 20.2274C30.8144 18.737 32.0169 17.3524 33.2261 16.0962ZM20.8237 29.0889C20.072 27.3724 19.4289 25.6847 18.9037 24.055C20.6277 23.6835 22.4661 23.38 24.3816 23.1496C23.0999 25.0743 21.9125 27.057 20.8237 29.0889ZM24.4367 40.9315C22.4578 40.7188 20.5916 40.4307 18.8682 40.0695C19.4016 38.4109 20.0589 36.687 20.8267 34.9337C21.9305 36.9866 23.1358 38.9885 24.4367 40.9315ZM33.2975 47.983C32.0741 46.7119 30.8539 45.3062 29.6621 43.7941C32.0549 43.8847 34.4523 43.8848 36.8447 43.782C35.6681 45.3216 34.48 46.7294 33.2975 47.983ZM45.6175 34.8444C46.4251 36.6167 47.1059 38.3314 47.6466 39.9619C45.8946 40.3468 44.0032 40.6567 42.0102 40.8869C43.2979 38.9215 44.506 36.9072 45.6175 34.8444ZM38.7304 41.1881C35.0706 41.4399 31.3877 41.4372 27.7266 41.2087C25.6462 38.2829 23.7944 35.2059 22.1958 32.0115C23.7865 28.8238 25.625 25.7529 27.6956 22.8316C31.3595 22.5649 35.0458 22.5643 38.7096 22.8331C40.7623 25.7542 42.598 28.8172 44.2257 31.9763C42.6173 35.1625 40.7692 38.2396 38.7304 41.1881ZM46.9541 8.93319C50.721 11.0251 49.0442 18.4545 48.2213 21.6851C45.7146 21.1282 42.9924 20.7137 40.1424 20.4563C38.482 18.1801 36.7618 16.1104 35.0349 14.319C37.5668 11.9688 43.2235 6.86178 46.9541 8.93319Z" fill="#53C1DE"/>
</svg>
