<svg width="66" height="64" viewBox="0 0 66 64" fill="none" xmlns="http://www.w3.org/2000/svg">
<g clip-path="url(#clip0_1103_239)">
<path d="M30.1081 30.2826C30.1022 30.1489 30.1022 30.0151 30.1022 29.8814C30.1022 21.839 30.1022 13.7965 30.1081 5.75413C30.1081 5.53897 30.0784 5.32381 30.1528 5.08538C32.2839 4.7103 65.0569 0.0029076 65.5599 0C65.5718 0.127934 65.5897 0.258776 65.5956 0.389618C65.6581 6.53046 65.6254 29.8901 65.5361 30.4454C65.4498 30.4542 65.3515 30.4745 65.2504 30.4774C64.6551 30.4803 64.0598 30.4803 63.4526 30.4832C52.5769 30.5268 41.6922 30.5705 30.8135 30.6112C30.5963 30.6112 30.379 30.6344 30.1319 30.5792C30.126 30.4745 30.1111 30.3756 30.1081 30.2826ZM65.5212 33.8066C65.3486 33.7223 65.164 33.7543 64.9765 33.7543C62.5984 33.7368 60.2262 33.7165 57.851 33.7078C51.553 33.6845 45.252 33.6641 38.942 33.6409C36.1919 33.6351 33.4447 33.6118 30.6945 33.6002C30.5099 33.6002 30.3194 33.5595 30.1349 33.6525C30.0665 33.8444 30.0903 34.0508 30.0903 34.2428C30.0843 42.352 30.0843 50.4613 30.0843 58.5706C30.0843 58.6665 30.0813 58.7683 30.0903 58.873C30.0962 58.9631 30.123 59.0591 30.1409 59.1783C41.9006 60.7862 53.6424 62.3941 65.3873 63.9991C65.4349 64.0049 65.4825 63.9816 65.545 63.97C65.5569 63.9031 65.5778 63.8392 65.5778 63.7752C65.5778 53.8167 65.5718 43.8553 65.5658 33.8967C65.5778 33.8735 65.545 33.8444 65.5212 33.8066ZM26.7775 33.5944C18.0002 33.5566 9.22875 33.5246 0.448401 33.4897C0.400779 33.4897 0.356133 33.5129 0.2847 33.5362C0.266841 33.6118 0.248983 33.6961 0.24303 33.7746C0.186479 35.1325 0.225172 54.6105 0.296605 55.0931C9.11267 56.3027 17.9139 57.5064 26.715 58.7102C26.7775 58.7218 26.846 58.7043 26.9085 58.6985C26.9323 58.6375 26.9591 58.5968 26.9591 58.5473C26.9651 50.2927 26.9651 42.0351 26.9651 33.7775C26.9651 33.7281 26.9353 33.6874 26.9234 33.6292C26.8698 33.6176 26.8252 33.5944 26.7775 33.5944ZM26.8252 5.56514C18.1817 6.80377 9.53532 8.04822 0.89486 9.29268C0.695442 9.31884 0.496023 9.36536 0.278747 9.40607C0.272794 9.55436 0.248983 9.68229 0.248983 9.81313C0.183503 14.7997 0.216243 30.1867 0.311487 30.7449C0.516858 30.7478 0.707347 30.7536 0.888907 30.7536C9.13648 30.7187 17.387 30.6868 25.6316 30.6519C25.9561 30.6519 26.2864 30.6519 26.6049 30.6431C26.715 30.6402 26.8281 30.6053 26.9651 30.5821C26.9651 22.2983 26.9651 14.0437 26.9651 5.78611C26.9651 5.72215 26.9412 5.65818 26.9293 5.60294C26.8877 5.58549 26.852 5.55932 26.8252 5.56514Z" fill="black"/>
</g>
<defs>
<clipPath id="clip0_1103_239">
<rect width="64.4507" height="64" fill="white" transform="translate(0.676147)"/>
</clipPath>
</defs>
</svg>
