<svg width="67" height="66" viewBox="0 0 67 66" fill="none" xmlns="http://www.w3.org/2000/svg">
<path fill-rule="evenodd" clip-rule="evenodd" d="M11.9161 60.2617L4.82239 51.4246C3.11566 49.2984 2.18933 46.6839 2.18933 43.9929V11.9934C2.18933 7.96257 5.41423 4.61787 9.57455 4.33383L42.4743 2.08763C44.8645 1.92444 47.2401 2.55975 49.2035 3.8872L60.7628 11.7024C62.8319 13.1014 64.0643 15.3883 64.0643 17.8288V54.209C64.0643 58.1537 60.8934 61.4198 56.8201 61.6705L20.305 63.9183C17.0545 64.1183 13.9126 62.7488 11.9161 60.2617Z" fill="white"/>
<path d="M23.3261 28.006V27.5871C23.3261 26.5252 24.1766 25.6444 25.2728 25.5712L33.2574 25.0381L44.2995 41.2985V27.0273L41.4573 26.6484V26.4494C41.4573 25.375 42.3273 24.4884 43.4375 24.4315L50.7027 24.0594V25.1049C50.7027 25.5957 50.3377 26.0155 49.8375 26.1001L48.0891 26.3958V49.5076L45.895 50.2622C44.0619 50.8925 42.0212 50.2178 40.9718 48.6343L30.2519 32.4579V47.8973L33.5515 48.5288L33.5055 48.8349C33.3615 49.7935 32.5338 50.5186 31.5325 50.5631L23.3261 50.9284C23.2176 49.8975 23.9902 48.9752 25.0561 48.8632L26.1356 48.7498V28.1639L23.3261 28.006Z" fill="black"/>
<path fill-rule="evenodd" clip-rule="evenodd" d="M42.7688 6.11896L9.86905 8.36516C7.89837 8.49971 6.37079 10.084 6.37079 11.9934V43.9928C6.37079 45.7868 6.98834 47.5299 8.12616 48.9473L15.2198 57.7844C16.3668 59.2132 18.1717 59.9999 20.039 59.885L56.5541 57.6373C58.4256 57.5221 59.8825 56.0214 59.8825 54.209V17.8288C59.8825 16.7074 59.3163 15.6567 58.3656 15.014L46.8063 7.1987C45.6283 6.40223 44.2029 6.02105 42.7688 6.11896ZM11.5005 12.4925C11.0429 12.1537 11.2607 11.448 11.8355 11.4067L42.9902 9.17213C43.9828 9.10093 44.9692 9.37428 45.7719 9.94303L52.0229 14.3717C52.2602 14.5399 52.1489 14.9028 51.8551 14.9188L18.8624 16.7132C17.8639 16.7675 16.8784 16.4741 16.0845 15.8864L11.5005 12.4925ZM17.3149 22.3383C17.3149 21.2665 18.1808 20.3811 19.2881 20.3208L54.1707 18.4211C55.2498 18.3623 56.1583 19.1922 56.1583 20.2368V51.7383C56.1583 52.8082 55.2954 53.6927 54.1903 53.7555L19.5286 55.7277C18.3276 55.7961 17.3149 54.8732 17.3149 53.7105V22.3383Z" fill="black"/>
</svg>
