<svg width="65" height="64" viewBox="0 0 65 64" fill="none" xmlns="http://www.w3.org/2000/svg">
<path d="M60.5494 32C60.5494 47.456 47.9312 60 32.3522 60C16.7733 60 4.15503 47.456 4.15503 32C4.15503 16.53 16.7733 4 32.3522 4C47.9312 4 60.5494 16.53 60.5494 32Z" fill="#E95420"/>
<path d="M13.866 28.3125C11.8324 28.3125 10.1973 29.9729 10.1973 32.0069C10.1973 34.0409 11.8461 35.7013 13.866 35.7013C15.8859 35.7013 17.5348 34.0409 17.5348 32.0069C17.5348 29.9591 15.8859 28.3125 13.866 28.3125ZM40.0694 45.0964C38.3106 46.1204 37.7197 48.3757 38.7228 50.1468C39.7396 51.9179 41.9793 52.5267 43.7381 51.5028C45.4969 50.4789 46.0877 48.2235 45.0847 46.4524C44.0541 44.6952 41.8144 44.0864 40.0694 45.0964ZM21.8356 32.0069C21.8356 28.354 23.6356 25.1301 26.3974 23.1791L23.718 18.6545C20.5027 20.813 18.1256 24.12 17.1225 27.9804C18.2767 28.9352 19.0187 30.388 19.0187 32.0069C19.0187 33.6258 18.2767 35.0787 17.1225 36.0334C18.1119 39.8938 20.5027 43.2008 23.718 45.3593L26.3974 40.8347C23.6356 38.8838 21.8356 35.6598 21.8356 32.0069ZM32.5532 21.2143C38.1594 21.2143 42.7488 25.5313 43.2297 31.0522L48.4649 30.9692C48.2038 26.9012 46.445 23.2483 43.7244 20.564C42.3228 21.0898 40.7152 21.0067 39.3274 20.2042C37.9258 19.3879 37.0602 18.0319 36.8128 16.5375C35.4525 16.1639 34.0235 15.9563 32.5532 15.9563C30.0112 15.9563 27.6204 16.5513 25.4906 17.6168L28.0463 22.2105C29.4066 21.574 30.9456 21.2143 32.5532 21.2143ZM32.5532 42.7995C30.9456 42.7995 29.4066 42.4398 28.0326 41.8033L25.4768 46.3971C27.6066 47.4625 30.0112 48.0575 32.5395 48.0575C34.0097 48.0575 35.4388 47.8499 36.7991 47.4764C37.0327 45.9958 37.9121 44.626 39.3136 43.8096C40.7014 42.9933 42.3228 42.9241 43.7106 43.4499C46.4175 40.7656 48.1901 37.1127 48.4511 33.0447L43.216 32.9617C42.7488 38.4687 38.1594 42.7995 32.5532 42.7995ZM40.0556 18.9036C41.8144 19.9275 44.0541 19.3187 45.0709 17.5476C46.0877 15.7765 45.4832 13.5211 43.7244 12.4972C41.9656 11.4733 39.7258 12.0821 38.709 13.8532C37.706 15.6243 38.3106 17.8797 40.0556 18.9036Z" fill="white"/>
</svg>
