<svg width="65" height="64" viewBox="0 0 65 64" fill="none" xmlns="http://www.w3.org/2000/svg">
<g clip-path="url(#clip0_1103_248)">
<path d="M58.34 47.635C57.4867 48.0813 56.6067 48.4745 55.705 48.8125C52.8349 49.8864 49.7945 50.4335 46.73 50.4275C34.9 50.4275 24.595 42.29 24.595 31.8475C24.6101 30.4469 24.9988 29.0758 25.7209 27.8755C26.4429 26.6753 27.4722 25.6896 28.7025 25.02C18.0025 25.47 15.2525 36.62 15.2525 43.1525C15.2525 61.6225 32.275 63.495 35.9425 63.495C37.92 63.495 40.9025 62.92 42.6925 62.355L43.02 62.245C49.9081 59.8637 55.7803 55.2083 59.67 49.045C59.7891 48.8573 59.8423 48.6353 59.8212 48.414C59.8 48.1926 59.7057 47.9847 59.5531 47.823C59.4006 47.6613 59.1985 47.555 58.9788 47.5209C58.7591 47.4869 58.5343 47.527 58.34 47.635Z" fill="url(#paint0_linear_1103_248)"/>
<path opacity="0.35" d="M58.34 47.635C57.4867 48.0813 56.6067 48.4745 55.705 48.8125C52.8349 49.8864 49.7945 50.4335 46.73 50.4275C34.9 50.4275 24.595 42.29 24.595 31.8475C24.6101 30.4469 24.9988 29.0758 25.7209 27.8755C26.4429 26.6753 27.4722 25.6896 28.7025 25.02C18.0025 25.47 15.2525 36.62 15.2525 43.1525C15.2525 61.6225 32.275 63.495 35.9425 63.495C37.92 63.495 40.9025 62.92 42.6925 62.355L43.02 62.245C49.9081 59.8637 55.7803 55.2083 59.67 49.045C59.7891 48.8573 59.8423 48.6353 59.8212 48.414C59.8 48.1926 59.7057 47.9847 59.5531 47.823C59.4006 47.6613 59.1985 47.555 58.9788 47.5209C58.7591 47.4869 58.5343 47.527 58.34 47.635Z" fill="url(#paint1_radial_1103_248)"/>
<path d="M27.005 60.355C24.7752 58.971 22.8427 57.1576 21.32 55.02C19.5845 52.6422 18.3902 49.9135 17.8209 47.0253C17.2516 44.1371 17.3211 41.1593 18.0246 38.3007C18.728 35.4422 20.0483 32.7722 21.8929 30.478C23.7375 28.1838 26.0617 26.3209 28.7025 25.02C29.4825 24.6525 30.815 23.9875 32.5875 24.02C33.8363 24.0291 35.066 24.3273 36.1802 24.8911C37.2945 25.455 38.2631 26.2692 39.01 27.27C40.0196 28.618 40.5762 30.2511 40.6 31.935C40.6 31.8825 46.715 12.035 20.6 12.035C9.625 12.035 0.599999 22.45 0.599999 31.5875C0.556709 36.4212 1.59093 41.2037 3.6275 45.5875C6.95582 52.689 12.7761 58.3209 19.9832 61.4138C27.1903 64.5067 35.2823 64.8452 42.7225 62.365C40.1174 63.1864 37.3651 63.433 34.6555 63.0877C31.9459 62.7424 29.3434 61.8135 27.0275 60.365L27.005 60.355Z" fill="url(#paint2_linear_1103_248)"/>
<path opacity="0.41" d="M27.005 60.355C24.7752 58.971 22.8427 57.1576 21.32 55.02C19.5845 52.6422 18.3902 49.9135 17.8209 47.0253C17.2516 44.1371 17.3211 41.1593 18.0246 38.3007C18.728 35.4422 20.0483 32.7722 21.8929 30.478C23.7375 28.1838 26.0617 26.3209 28.7025 25.02C29.4825 24.6525 30.815 23.9875 32.5875 24.02C33.8363 24.0291 35.066 24.3273 36.1802 24.8911C37.2945 25.455 38.2631 26.2692 39.01 27.27C40.0196 28.618 40.5762 30.2511 40.6 31.935C40.6 31.8825 46.715 12.035 20.6 12.035C9.625 12.035 0.599999 22.45 0.599999 31.5875C0.556709 36.4212 1.59093 41.2037 3.6275 45.5875C6.95582 52.689 12.7761 58.3209 19.9832 61.4138C27.1903 64.5067 35.2823 64.8452 42.7225 62.365C40.1174 63.1864 37.3651 63.433 34.6555 63.0877C31.9459 62.7424 29.3434 61.8135 27.0275 60.365L27.005 60.355Z" fill="url(#paint3_radial_1103_248)"/>
<path d="M38.655 37.215C38.4525 37.4775 37.83 37.84 37.83 38.63C37.83 39.2825 38.255 39.91 39.01 40.4375C42.605 42.9375 49.3825 42.6075 49.4 42.6075C52.0638 42.6011 54.6772 41.8802 56.9675 40.52C59.278 39.1709 61.1956 37.2411 62.5301 34.9221C63.8646 32.6031 64.5695 29.9755 64.575 27.3C64.64 21.6975 62.575 17.9725 61.74 16.3225C56.4425 5.96 45.0075 1.56661e-07 32.5725 1.56661e-07C24.163 -0.000831393 16.0911 3.30875 10.1027 9.21293C4.11432 15.1171 0.690769 23.1413 0.57251 31.55C0.69251 22.415 9.77251 15.0375 20.5725 15.0375C21.4475 15.0375 26.4375 15.1225 31.0725 17.555C35.1575 19.7 37.2975 22.29 38.785 24.8575C40.33 27.525 40.605 30.895 40.605 32.2375C40.605 33.58 39.92 35.57 38.655 37.215Z" fill="url(#paint4_radial_1103_248)"/>
<path d="M38.655 37.215C38.4525 37.4775 37.83 37.84 37.83 38.63C37.83 39.2825 38.255 39.91 39.01 40.4375C42.605 42.9375 49.3825 42.6075 49.4 42.6075C52.0638 42.6011 54.6772 41.8802 56.9675 40.52C59.278 39.1709 61.1956 37.2411 62.5301 34.9221C63.8646 32.6031 64.5695 29.9755 64.575 27.3C64.64 21.6975 62.575 17.9725 61.74 16.3225C56.4425 5.96 45.0075 1.56661e-07 32.5725 1.56661e-07C24.163 -0.000831393 16.0911 3.30875 10.1027 9.21293C4.11432 15.1171 0.690769 23.1413 0.57251 31.55C0.69251 22.415 9.77251 15.0375 20.5725 15.0375C21.4475 15.0375 26.4375 15.1225 31.0725 17.555C35.1575 19.7 37.2975 22.29 38.785 24.8575C40.33 27.525 40.605 30.895 40.605 32.2375C40.605 33.58 39.92 35.57 38.655 37.215Z" fill="url(#paint5_radial_1103_248)"/>
</g>
<defs>
<linearGradient id="paint0_linear_1103_248" x1="15.2525" y1="44.2625" x2="59.8375" y2="44.2625" gradientUnits="userSpaceOnUse">
<stop stop-color="#0C59A4"/>
<stop offset="1" stop-color="#114A8B"/>
</linearGradient>
<radialGradient id="paint1_radial_1103_248" cx="0" cy="0" r="1" gradientUnits="userSpaceOnUse" gradientTransform="translate(39.8775 44.6139) scale(23.845 22.6527)">
<stop offset="0.72" stop-opacity="0"/>
<stop offset="0.95" stop-opacity="0.53"/>
<stop offset="1"/>
</radialGradient>
<linearGradient id="paint2_linear_1103_248" x1="38.7575" y1="24.9225" x2="10.91" y2="55.255" gradientUnits="userSpaceOnUse">
<stop stop-color="#1B9DE2"/>
<stop offset="0.16" stop-color="#1595DF"/>
<stop offset="0.67" stop-color="#0680D7"/>
<stop offset="1" stop-color="#0078D4"/>
</linearGradient>
<radialGradient id="paint3_radial_1103_248" cx="0" cy="0" r="1" gradientUnits="userSpaceOnUse" gradientTransform="translate(18.2211 49.7521) rotate(-81.3844) scale(35.8565 28.9685)">
<stop offset="0.76" stop-opacity="0"/>
<stop offset="0.95" stop-opacity="0.5"/>
<stop offset="1"/>
</radialGradient>
<radialGradient id="paint4_radial_1103_248" cx="0" cy="0" r="1" gradientUnits="userSpaceOnUse" gradientTransform="translate(7.03813 11.8442) rotate(92.2906) scale(50.648 107.87)">
<stop stop-color="#35C1F1"/>
<stop offset="0.11" stop-color="#34C1ED"/>
<stop offset="0.23" stop-color="#2FC2DF"/>
<stop offset="0.31" stop-color="#2BC3D2"/>
<stop offset="0.67" stop-color="#36C752"/>
</radialGradient>
<radialGradient id="paint5_radial_1103_248" cx="0" cy="0" r="1" gradientUnits="userSpaceOnUse" gradientTransform="translate(60.5906 19.3515) rotate(73.7398) scale(24.335 19.7892)">
<stop stop-color="#66EB6E"/>
<stop offset="1" stop-color="#66EB6E" stop-opacity="0"/>
</radialGradient>
<clipPath id="clip0_1103_248">
<rect width="64" height="64" fill="white" transform="translate(0.577515)"/>
</clipPath>
</defs>
</svg>
