<svg width="65" height="64" viewBox="0 0 65 64" fill="none" xmlns="http://www.w3.org/2000/svg">
<circle cx="32.5775" cy="32" r="28" fill="#1794D4"/>
<path d="M36.5775 14H32.5775V18H36.5775V14Z" fill="white"/>
<path d="M20.5775 20H24.5775V24H20.5775V20Z" fill="white"/>
<path d="M12.5806 33.8828C12.9224 39.6854 16.3781 48 28.5775 48C42.1775 48 48.2442 38 49.5775 33C51.2442 33 54.9775 32 56.5775 28C55.5775 27 51.5775 27 49.5775 28C49.5775 26.4 48.5775 23 46.5775 22C45.2442 23.3333 43.1775 26.8 45.5775 30C44.5775 32 41.911 32 40.5776 32H14.4633C13.4044 32 12.5183 32.8257 12.5806 33.8828Z" fill="white"/>
<path d="M18.5775 26H14.5775V30H18.5775V26Z" fill="white"/>
<path d="M20.5775 26H24.5775V30H20.5775V26Z" fill="white"/>
<path d="M30.5775 26H26.5775V30H30.5775V26Z" fill="white"/>
<path d="M32.5775 26H36.5775V30H32.5775V26Z" fill="white"/>
<path d="M42.5775 26H38.5775V30H42.5775V26Z" fill="white"/>
<path d="M30.5775 20H26.5775V24H30.5775V20Z" fill="white"/>
<path d="M32.5775 20H36.5775V24H32.5775V20Z" fill="white"/>
</svg>
