<svg width="65" height="64" viewBox="0 0 65 64" fill="none" xmlns="http://www.w3.org/2000/svg">
<rect x="4.45081" y="4" width="56.3944" height="56" fill="#FFCA28"/>
<path d="M38.6902 50.5753L42.8423 47.8471C43.1676 48.8622 45.2282 51.2732 47.831 51.2732C50.4338 51.2732 51.6423 49.8615 51.6423 48.9257C51.6423 46.3753 48.9845 45.4761 47.708 45.0442C47.4999 44.9738 47.3285 44.9158 47.2113 44.8651C47.1512 44.8391 47.0603 44.8046 46.9436 44.7603C45.5239 44.2217 40.2859 42.2345 40.2859 36.4743C40.2859 30.1296 46.4521 29.4 47.8465 29.4C48.7588 29.4 53.1451 29.511 55.3296 33.5874L51.3014 36.3791C50.4183 34.6026 48.9511 34.0157 48.0479 34.0157C45.8169 34.0157 45.3521 35.6399 45.3521 36.3791C45.3521 38.4535 47.776 39.3833 49.8227 40.1684C50.3581 40.3738 50.8678 40.5693 51.3014 40.7728C53.5324 41.8197 56.8169 43.5327 56.8169 48.9257C56.8169 51.6268 54.5353 56 48.7916 56C41.0761 56 39.031 51.4001 38.6902 50.5753Z" fill="#3E3E3E"/>
<path d="M18.5493 51.1171L22.8769 48.3902C23.216 49.4049 24.5337 51.2756 26.4456 51.2756C28.3575 51.2756 29.3361 49.3256 29.3361 48.3902V30H34.6584V48.3902C34.7445 50.9268 33.3278 56 27.0754 56C21.3267 56 18.9369 52.6073 18.5493 51.1171Z" fill="#3E3E3E"/>
</svg>
