<svg width="65" height="64" viewBox="0 0 65 64" fill="none" xmlns="http://www.w3.org/2000/svg">
<path d="M31.3989 8.13342L32.7266 10.6131C33.0157 11.0604 33.3522 11.4756 33.7303 11.8517C34.8425 12.956 35.901 14.1136 36.8487 15.3534C39.0998 18.2891 40.6187 21.549 41.7041 25.0785C42.3545 27.234 42.7078 29.4427 42.7346 31.678C42.8442 38.3586 40.5371 44.0957 35.8718 48.8638C35.1158 49.6197 34.2995 50.3134 33.4307 50.9383C32.9678 50.9383 32.7522 50.5754 32.5622 50.2645C32.1967 49.6598 31.9921 48.9981 31.8837 48.3256C31.7205 47.5176 31.6121 46.7096 31.6669 45.8737V45.4964C31.6401 45.4153 31.2332 8.32333 31.3952 8.13463L31.3989 8.13342Z" fill="#599636"/>
<path d="M31.3989 8.05354C31.3441 7.94467 31.2893 8.02693 31.2357 8.08015C31.2625 8.61842 31.0724 9.10346 30.7728 9.56189C30.4475 10.0215 30.0127 10.3699 29.579 10.7473C27.1647 12.8217 25.2669 15.3268 23.7467 18.1282C21.7393 21.8997 20.682 25.9397 20.3848 30.1962C20.2508 31.7324 20.872 37.1465 21.3617 38.7081C22.6894 42.857 25.0769 46.3309 28.1831 49.3476C28.9432 50.0734 29.7569 50.7483 30.5974 51.3942C30.841 51.3942 30.869 51.1789 30.9226 51.0169C31.0295 50.6728 31.1109 50.3215 31.1662 49.9657C31.4098 48.6195 31.5463 47.272 31.7083 45.9257L31.4098 8.05354H31.3989Z" fill="#6CAC48"/>
<path d="M32.7303 52.5808C32.7851 51.9615 33.0957 51.4499 33.4088 50.9382C33.0835 50.8052 32.8387 50.5342 32.6487 50.2367C32.4855 49.9669 32.3502 49.6319 32.2418 49.3476C31.8618 48.2166 31.779 47.0312 31.6718 45.8725V45.1709C31.5378 45.2798 31.5085 46.1942 31.5085 46.3297C31.4269 47.5683 31.2649 48.7815 31.0213 49.9657C30.9397 50.4495 30.8873 50.9358 30.5876 51.3664C30.5876 51.4208 30.5876 51.4753 30.6144 51.5551C31.1017 52.9824 31.2381 54.4375 31.3209 55.9193V56.4576C31.3209 57.1035 31.2941 56.9692 31.8362 57.1833C32.053 57.2644 32.2991 57.2922 32.5147 57.453C32.6779 57.453 32.7047 57.32 32.7047 57.2111L32.6231 56.3221V53.8424C32.5963 53.4118 32.6779 52.98 32.7327 52.576L32.7303 52.5808Z" fill="#C2BFBF"/>
</svg>
