<svg width="65" height="64" viewBox="0 0 65 64" fill="none" xmlns="http://www.w3.org/2000/svg">
<path d="M24.2867 8H39.3601L23.7121 54.364C23.3827 55.3413 22.4667 55.9987 21.4347 55.9987H9.70408C8.37874 55.9987 7.30408 54.924 7.30408 53.5987C7.30408 53.3373 7.34674 53.0787 7.42941 52.8307L22.0094 9.636C22.3387 8.65867 23.2547 8 24.2867 8Z" fill="url(#paint0_linear_1103_247)"/>
<path d="M46.1908 39.0986H22.2882C21.6775 39.0973 21.1815 39.5933 21.1802 40.204C21.1802 40.512 21.3068 40.8053 21.5322 41.0146L36.8922 55.3506C37.3388 55.768 37.9282 56 38.5402 56H52.0748L46.1908 39.0986Z" fill="#0078D4"/>
<path d="M24.2868 8.00002C23.2428 7.99602 22.3188 8.67202 22.0041 9.66668L7.44813 52.7934C7.00146 54.0387 7.64946 55.412 8.89479 55.8587C9.15613 55.952 9.43213 56 9.71079 56H21.7455C22.6575 55.8374 23.4121 55.196 23.7201 54.3214L26.6228 45.7667L36.9908 55.4374C37.4255 55.7974 37.9708 55.996 38.5348 56H52.0201L46.1055 39.0987L28.8641 39.1027L39.4148 8.00002H24.2868Z" fill="url(#paint1_linear_1103_247)"/>
<path d="M43.5401 9.63333C43.2108 8.65733 42.2961 8 41.2655 8H24.4655C25.4948 8 26.4108 8.65733 26.7388 9.632L41.3188 52.8307C41.7428 54.0867 41.0681 55.448 39.8121 55.872C39.5655 55.9573 39.3068 56 39.0455 56H55.8455C57.1708 56 58.2455 54.9253 58.2455 53.5987C58.2455 53.3373 58.2028 53.0787 58.1188 52.832L43.5401 9.63333Z" fill="url(#paint2_linear_1103_247)"/>
<defs>
<linearGradient id="paint0_linear_1103_247" x1="29.781" y1="11.5577" x2="14.1268" y2="57.8035" gradientUnits="userSpaceOnUse">
<stop stop-color="#114A8B"/>
<stop offset="1" stop-color="#0669BC"/>
</linearGradient>
<linearGradient id="paint1_linear_1103_247" x1="34.6706" y1="33.1077" x2="31.0498" y2="34.3327" gradientUnits="userSpaceOnUse">
<stop stop-opacity="0.3"/>
<stop offset="0.071" stop-opacity="0.2"/>
<stop offset="0.321" stop-opacity="0.1"/>
<stop offset="0.623" stop-opacity="0.05"/>
<stop offset="1" stop-opacity="0"/>
</linearGradient>
<linearGradient id="paint2_linear_1103_247" x1="32.7915" y1="10.166" x2="49.9748" y2="55.9473" gradientUnits="userSpaceOnUse">
<stop stop-color="#3CCBF4"/>
<stop offset="1" stop-color="#2892DF"/>
</linearGradient>
</defs>
</svg>
