<svg width="66" height="64" viewBox="0 0 66 64" fill="none" xmlns="http://www.w3.org/2000/svg">
<path d="M4.80298 24.2667C4.80298 17.1727 4.80298 13.6257 6.19329 10.9161C7.41623 8.53273 9.36763 6.59498 11.7678 5.38058C14.4964 4 18.0684 4 25.2124 4H40.788C47.9319 4 51.5039 4 54.2325 5.38058C56.6327 6.59498 58.5841 8.53273 59.807 10.9161C61.1973 13.6257 61.1973 17.1727 61.1973 24.2667V39.7333C61.1973 46.8273 61.1973 50.3743 59.807 53.0839C58.5841 55.4673 56.6327 57.405 54.2325 58.6194C51.5039 60 47.9319 60 40.788 60H25.2124C18.0684 60 14.4964 60 11.7678 58.6194C9.36763 57.405 7.41623 55.4673 6.19329 53.0839C4.80298 50.3743 4.80298 46.8273 4.80298 39.7333V24.2667Z" fill="#001E36"/>
<path d="M16.8875 45.0325V20.4068C16.8875 20.2393 16.9579 20.1436 17.1224 20.1436C19.5507 20.1436 21.9778 20 24.4067 20C28.3479 20 32.6154 21.3382 34.1112 25.4325C34.4637 26.4376 34.6517 27.4667 34.6517 28.5436C34.6517 30.6017 34.1817 32.3009 33.2418 33.641C30.6163 37.3847 26.0656 37.3265 21.9864 37.3265V45.0086C22.0183 45.236 21.8232 45.3436 21.634 45.3436H17.1694C16.9814 45.3436 16.8875 45.2479 16.8875 45.0325ZM22.0099 24.7624V32.8034C23.6274 32.9211 25.3199 32.9339 26.874 32.4205C28.5896 31.9291 29.5292 30.4543 29.5292 28.6872C29.5769 27.1814 28.7506 25.7366 27.3439 25.1932C25.8086 24.5592 23.6673 24.5213 22.0099 24.7624Z" fill="#31A8FF"/>
<path d="M49.3075 31.2148C48.5965 30.8427 47.8393 30.5705 47.0565 30.4056C46.0506 30.1706 42.0832 29.3474 42.0817 31.4074C42.1169 32.5575 43.9553 33.1209 44.7677 33.4495C47.6193 34.4216 50.8463 36.1594 50.7829 39.6528C50.8701 44.0016 46.6269 45.7401 42.9896 45.7405C41.0961 45.76 39.1235 45.4688 37.3906 44.6617C37.2252 44.5747 37.1187 44.3888 37.1258 44.1993V40.0381C37.1071 39.8712 37.2874 39.7254 37.4284 39.8454C39.1263 40.8651 41.1389 41.3602 43.1031 41.3866C43.9702 41.3866 45.6887 41.3031 45.6757 40.0381C45.6757 38.824 43.6199 38.2659 42.8004 37.9574C41.6126 37.5364 40.4863 36.9531 39.4524 36.2236C38.0075 35.2002 37.1011 33.5594 37.1258 31.7542C37.1173 27.6594 41.0232 25.8214 44.5407 25.8205C46.1852 25.8071 47.951 25.928 49.4817 26.5911C49.7019 26.6555 49.7475 26.8857 49.7466 27.092V30.9836C49.7605 31.2251 49.4904 31.3074 49.3075 31.2148Z" fill="#31A8FF"/>
</svg>
