<svg width="65" height="64" viewBox="0 0 65 64" fill="none" xmlns="http://www.w3.org/2000/svg">
<path d="M4.25366 24.2667C4.25366 17.1727 4.25366 13.6257 5.64397 10.9161C6.86692 8.53273 8.81832 6.59498 11.2185 5.38058C13.9471 4 17.5191 4 24.6631 4H40.2386C47.3826 4 50.9546 4 53.6832 5.38058C56.0834 6.59498 58.0348 8.53273 59.2577 10.9161C60.648 13.6257 60.648 17.1727 60.648 24.2667V39.7333C60.648 46.8273 60.648 50.3743 59.2577 53.0839C58.0348 55.4673 56.0834 57.405 53.6832 58.6194C50.9546 60 47.3826 60 40.2386 60H24.6631C17.5191 60 13.9471 60 11.2185 58.6194C8.81832 57.405 6.86692 55.4673 5.64397 53.0839C4.25366 50.3743 4.25366 46.8273 4.25366 39.7333V24.2667Z" fill="#330000"/>
<path d="M31.5816 39.1925H22.8426L21.0645 44.8179C21.0152 45.0269 20.8214 45.1749 20.6105 45.1647H16.1843C15.9319 45.1647 15.8436 45.0234 15.9195 44.7409L23.4857 22.5476C23.5614 22.3165 23.6371 22.0532 23.7127 21.7577C23.8117 21.2437 23.8624 20.7212 23.8641 20.1973C23.8424 20.0426 23.9794 19.9059 24.1289 19.9276H30.144C30.3202 19.9276 30.4211 19.9918 30.4466 20.1203L39.0344 44.7794C39.11 45.0364 39.0343 45.1649 38.8074 45.1647H33.8892C33.7167 45.1841 33.552 45.0667 33.511 44.895L31.5816 39.1925ZM24.2045 34.3378H30.1818C29.1998 31.0054 28.0915 27.7169 27.1932 24.3585C26.2241 27.7225 25.1667 31.073 24.2045 34.3378Z" fill="#FF9A00"/>
<path d="M44.1411 24.0116C43.7553 24.0274 43.3705 23.9601 43.0119 23.814C42.6534 23.6679 42.3291 23.4464 42.0604 23.164C41.7924 22.8693 41.5843 22.5236 41.4479 22.1467C41.3116 21.7698 41.2497 21.3691 41.2659 20.9678C41.2521 20.5704 41.3208 20.1746 41.4675 19.8061C41.6142 19.4376 41.8355 19.1048 42.1171 18.8294C42.3959 18.5568 42.7251 18.3432 43.0855 18.201C43.4459 18.0588 43.8304 17.9909 44.2167 18.001C45.1247 18.001 45.8372 18.2771 46.3542 18.8294C46.6152 19.1164 46.818 19.453 46.9511 19.8199C47.0842 20.1868 47.1449 20.5769 47.1297 20.9678C47.1455 21.3707 47.0817 21.7727 46.942 22.15C46.8022 22.5273 46.5895 22.8721 46.3164 23.164C46.0309 23.4506 45.6902 23.6739 45.3159 23.8197C44.9415 23.9656 44.5415 24.031 44.1411 24.0116ZM41.5307 44.7792V26.3619C41.5307 26.1308 41.6312 26.0152 41.8333 26.0152H46.4866C46.6882 26.0152 46.7891 26.1307 46.7893 26.3619V44.7792C46.7893 45.0363 46.6884 45.1647 46.4866 45.1646H41.8712C41.6443 45.1646 41.5308 45.0361 41.5307 44.7792Z" fill="#FF9A00"/>
</svg>
